<?xml version="1.0" encoding="UTF-8"?>
<!DOCTYPE svg PUBLIC "-//W3C//DTD SVG 1.1//EN" "http://www.w3.org/Graphics/SVG/1.1/DTD/svg11.dtd">
<svg xmlns="http://www.w3.org/2000/svg" version="1.1" width="500px" height="500px" style="shape-rendering:geometricPrecision; text-rendering:geometricPrecision; image-rendering:optimizeQuality; fill-rule:evenodd; clip-rule:evenodd" xmlns:xlink="http://www.w3.org/1999/xlink">
<g><path style="opacity:0.996" fill="#53d7fe" d="M 375.5,100.5 C 373.833,99.8333 372.167,99.1667 370.5,98.5C 369.325,98.719 368.325,98.3857 367.5,97.5C 364.653,93.9376 361.653,90.6043 358.5,87.5C 351.236,82.4068 344.402,76.7401 338,70.5C 335.999,76.6731 335.166,83.0064 335.5,89.5C 334.063,97.6312 337.063,103.298 344.5,106.5C 349.656,107.166 354.989,107.499 360.5,107.5C 366.211,107.495 371.544,106.828 376.5,105.5C 377.117,105.611 377.617,105.944 378,106.5C 378.499,110.486 378.666,114.486 378.5,118.5C 377.778,118.918 377.278,119.584 377,120.5C 373.255,118.772 369.421,117.105 365.5,115.5C 361.892,116.593 358.225,116.76 354.5,116C 322.305,110.101 289.972,105.101 257.5,101C 250.29,99.1434 242.956,97.8101 235.5,97C 238.121,96.0944 237.954,95.5944 235,95.5C 229.737,96.8203 224.57,96.4869 219.5,94.5C 218.832,97.3056 218.166,99.9723 217.5,102.5C 217.5,97.5 217.5,92.5 217.5,87.5C 202.5,87.5 187.5,87.5 172.5,87.5C 170.194,87.0074 167.861,86.6741 165.5,86.5C 160.167,85.1667 154.833,85.1667 149.5,86.5C 146.284,86.3455 143.617,87.3455 141.5,89.5C 139.216,89.9752 137.216,90.9752 135.5,92.5C 129.622,97.1886 123.289,97.6886 116.5,94C 113.833,93.3333 111.167,93.3333 108.5,94C 108.833,94.3333 109.167,94.6667 109.5,95C 108.809,96.0674 108.309,97.2341 108,98.5C 107.667,97.8333 107.333,97.1667 107,96.5C 106.821,100.025 106.321,103.359 105.5,106.5C 105.34,95.7766 104.673,85.11 103.5,74.5C 103.902,68.2655 106.902,63.7655 112.5,61C 187.998,60.531 263.331,60.8643 338.5,62C 350.728,75.0587 363.061,87.892 375.5,100.5 Z"/></g>
<g><path style="opacity:1" fill="#4ec0fd" d="M 370.5,98.5 C 372.5,100.833 374.5,103.167 376.5,105.5C 371.544,106.828 366.211,107.495 360.5,107.5C 354.989,107.499 349.656,107.166 344.5,106.5C 352.84,106.666 361.173,106.5 369.5,106C 368.5,105.667 367.5,105.333 366.5,105C 362.167,100.667 357.833,96.3333 353.5,92C 348.023,88.0242 342.69,83.8575 337.5,79.5C 336.833,82.9773 336.166,86.3107 335.5,89.5C 335.166,83.0064 335.999,76.6731 338,70.5C 344.402,76.7401 351.236,82.4068 358.5,87.5C 361.653,90.6043 364.653,93.9376 367.5,97.5C 368.325,98.3857 369.325,98.719 370.5,98.5 Z"/></g>
<g><path style="opacity:1" fill="#ca7a74" d="M 165.5,86.5 C 167.861,86.6741 170.194,87.0074 172.5,87.5C 174.139,88.4725 175.473,89.8058 176.5,91.5C 172.706,90.0175 169.039,88.3509 165.5,86.5 Z"/></g>
<g><path style="opacity:1" fill="#c5747d" d="M 149.5,86.5 C 147.064,87.871 144.397,88.871 141.5,89.5C 143.617,87.3455 146.284,86.3455 149.5,86.5 Z"/></g>
<g><path style="opacity:1" fill="#99e2fd" d="M 172.5,87.5 C 187.5,87.5 202.5,87.5 217.5,87.5C 217.5,92.5 217.5,97.5 217.5,102.5C 217.5,107.833 217.5,113.167 217.5,118.5C 209.567,120.468 201.234,121.135 192.5,120.5C 192.451,116.922 191.785,113.589 190.5,110.5C 190.075,105.65 188.075,101.65 184.5,98.5C 183.833,95.8333 182.167,94.1667 179.5,93.5C 179.027,92.0937 178.027,91.427 176.5,91.5C 175.473,89.8058 174.139,88.4725 172.5,87.5 Z"/></g>
<g><path style="opacity:1" fill="#4bb0fc" d="M 344.5,106.5 C 337.063,103.298 334.063,97.6312 335.5,89.5C 336.166,86.3107 336.833,82.9773 337.5,79.5C 342.69,83.8575 348.023,88.0242 353.5,92C 357.833,96.3333 362.167,100.667 366.5,105C 367.5,105.333 368.5,105.667 369.5,106C 361.173,106.5 352.84,106.666 344.5,106.5 Z"/></g>
<g><path style="opacity:1" fill="#f8e14b" d="M 165.5,86.5 C 169.039,88.3509 172.706,90.0175 176.5,91.5C 176.973,92.9063 177.973,93.573 179.5,93.5C 180.833,95.5 182.5,97.1667 184.5,98.5C 186.316,102.631 188.316,106.631 190.5,110.5C 190.5,116.5 190.5,122.5 190.5,128.5C 188.837,131.129 187.171,133.796 185.5,136.5C 184.391,136.443 183.391,136.11 182.5,135.5C 191.22,114.813 185.22,100.313 164.5,92C 156.906,90.5435 149.906,91.8768 143.5,96C 140.29,98.3875 137.29,100.887 134.5,103.5C 133.595,102.298 133.595,100.964 134.5,99.5C 138.41,96.1028 142.744,93.2695 147.5,91C 152.769,89.8938 158.103,89.2272 163.5,89C 159.179,88.501 154.846,88.3343 150.5,88.5C 151.263,87.7321 152.263,87.2321 153.5,87C 157.486,86.5012 161.486,86.3345 165.5,86.5 Z"/></g>
<g><path style="opacity:1" fill="#fcf3d2" d="M 182.5,135.5 C 178.62,139.545 174.287,143.045 169.5,146C 152.687,150.802 140.354,145.635 132.5,130.5C 129.332,121.177 129.999,112.177 134.5,103.5C 137.29,100.887 140.29,98.3875 143.5,96C 149.906,91.8768 156.906,90.5435 164.5,92C 185.22,100.313 191.22,114.813 182.5,135.5 Z"/></g>
<g><path style="opacity:1" fill="#cf7768" d="M 176.5,91.5 C 178.027,91.427 179.027,92.0937 179.5,93.5C 177.973,93.573 176.973,92.9063 176.5,91.5 Z"/></g>
<g><path style="opacity:1" fill="#f9efa5" d="M 150.5,88.5 C 154.846,88.3343 159.179,88.501 163.5,89C 158.103,89.2272 152.769,89.8938 147.5,91C 142.744,93.2695 138.41,96.1028 134.5,99.5C 134.859,97.629 135.859,96.129 137.5,95C 141.581,92.2928 145.914,90.1261 150.5,88.5 Z"/></g>
<g><path style="opacity:1" fill="#c67c84" d="M 179.5,93.5 C 182.167,94.1667 183.833,95.8333 184.5,98.5C 182.5,97.1667 180.833,95.5 179.5,93.5 Z"/></g>
<g><path style="opacity:1" fill="#cb746f" d="M 141.5,89.5 C 137.859,92.8049 134.192,96.1383 130.5,99.5C 131.754,96.9066 133.42,94.5732 135.5,92.5C 137.216,90.9752 139.216,89.9752 141.5,89.5 Z"/></g>
<g><path style="opacity:1" fill="#52d1fe" d="M 378.5,118.5 C 378.431,123.854 378.098,129.187 377.5,134.5C 333.329,128.149 289.329,121.315 245.5,114C 236.55,112.576 227.55,111.743 218.5,111.5C 218.802,114.059 218.468,116.393 217.5,118.5C 217.5,113.167 217.5,107.833 217.5,102.5C 218.166,99.9723 218.832,97.3056 219.5,94.5C 224.57,96.4869 229.737,96.8203 235,95.5C 237.954,95.5944 238.121,96.0944 235.5,97C 242.956,97.8101 250.29,99.1434 257.5,101C 289.972,105.101 322.305,110.101 354.5,116C 358.225,116.76 361.892,116.593 365.5,115.5C 369.421,117.105 373.255,118.772 377,120.5C 377.278,119.584 377.778,118.918 378.5,118.5 Z"/></g>
<g><path style="opacity:1" fill="#d07e71" d="M 184.5,98.5 C 188.075,101.65 190.075,105.65 190.5,110.5C 188.316,106.631 186.316,102.631 184.5,98.5 Z"/></g>
<g><path style="opacity:1" fill="#cc726c" d="M 130.5,99.5 C 130.573,101.027 129.906,102.027 128.5,102.5C 128.427,100.973 129.094,99.9731 130.5,99.5 Z"/></g>
<g><path style="opacity:1" fill="#53cbfd" d="M 377.5,134.5 C 377.074,143.334 376.407,152.001 375.5,160.5C 375.852,157.927 375.352,155.594 374,153.5C 373.586,153.957 373.086,154.291 372.5,154.5C 368.221,153.726 363.887,153.226 359.5,153C 357.137,152.411 356.137,150.911 356.5,148.5C 350.522,148.767 342.522,148.767 332.5,148.5C 331.92,152.81 331.586,157.143 331.5,161.5C 331.167,161.5 330.833,161.5 330.5,161.5C 330.5,154.833 330.5,148.167 330.5,141.5C 282.167,141.5 233.833,141.5 185.5,141.5C 224.342,140.837 263.342,140.003 302.5,139C 287.448,138.457 272.448,137.624 257.5,136.5C 257.5,135.5 257.5,134.5 257.5,133.5C 245.747,134.549 234.081,133.882 222.5,131.5C 222.5,130.5 222.5,129.5 222.5,128.5C 214.555,129.397 206.555,129.231 198.5,128C 196.277,127.434 194.277,126.6 192.5,125.5C 192.5,123.833 192.5,122.167 192.5,120.5C 201.234,121.135 209.567,120.468 217.5,118.5C 218.468,116.393 218.802,114.059 218.5,111.5C 227.55,111.743 236.55,112.576 245.5,114C 289.329,121.315 333.329,128.149 377.5,134.5 Z"/></g>
<g><path style="opacity:1" fill="#56c4f9" d="M 135.5,92.5 C 133.42,94.5732 131.754,96.9066 130.5,99.5C 129.094,99.9731 128.427,100.973 128.5,102.5C 125.084,106.962 123.417,112.129 123.5,118C 123.439,122.556 124.439,126.722 126.5,130.5C 127.553,135.545 129.887,139.879 133.5,143.5C 131.83,143.249 130.33,142.582 129,141.5C 127.167,137.51 125.334,133.51 123.5,129.5C 120.361,128.397 117.194,128.397 114,129.5C 111.046,129.406 110.879,128.906 113.5,128C 111.975,126.991 110.308,126.491 108.5,126.5C 108.5,130.833 108.5,135.167 108.5,139.5C 107.833,139.5 107.167,139.5 106.5,139.5C 106.543,128.486 106.209,117.486 105.5,106.5C 106.321,103.359 106.821,100.025 107,96.5C 107.333,97.1667 107.667,97.8333 108,98.5C 108.309,97.2341 108.809,96.0674 109.5,95C 109.167,94.6667 108.833,94.3333 108.5,94C 111.167,93.3333 113.833,93.3333 116.5,94C 123.289,97.6886 129.622,97.1886 135.5,92.5 Z"/></g>
<g><path style="opacity:1" fill="#f2daf8" d="M 370.5,98.5 C 372.167,99.1667 373.833,99.8333 375.5,100.5C 409.864,127.859 430.364,163.526 437,207.5C 439.802,224.88 439.969,242.213 437.5,259.5C 436.85,259.804 436.183,260.137 435.5,260.5C 434.378,259.37 433.044,258.703 431.5,258.5C 431.389,257.883 431.056,257.383 430.5,257C 427.854,256.503 425.187,256.336 422.5,256.5C 422.5,244.167 422.5,231.833 422.5,219.5C 422.666,210.827 422.5,202.16 422,193.5C 420.833,192.333 419.667,191.167 418.5,190C 404.242,188.43 389.908,187.597 375.5,187.5C 375.5,179.833 375.5,172.167 375.5,164.5C 375.5,163.167 375.5,161.833 375.5,160.5C 376.407,152.001 377.074,143.334 377.5,134.5C 378.098,129.187 378.431,123.854 378.5,118.5C 378.666,114.486 378.499,110.486 378,106.5C 377.617,105.944 377.117,105.611 376.5,105.5C 374.5,103.167 372.5,100.833 370.5,98.5 Z"/></g>
<g><path style="opacity:1" fill="#f2c552" d="M 165.5,86.5 C 161.486,86.3345 157.486,86.5012 153.5,87C 152.263,87.2321 151.263,87.7321 150.5,88.5C 145.914,90.1261 141.581,92.2928 137.5,95C 135.859,96.129 134.859,97.629 134.5,99.5C 133.595,100.964 133.595,102.298 134.5,103.5C 129.999,112.177 129.332,121.177 132.5,130.5C 131.034,129.653 130.2,128.32 130,126.5C 128.845,127.338 127.678,128.338 126.5,129.5C 124.747,120.306 125.413,111.306 128.5,102.5C 129.906,102.027 130.573,101.027 130.5,99.5C 134.192,96.1383 137.859,92.8049 141.5,89.5C 144.397,88.871 147.064,87.871 149.5,86.5C 154.833,85.1667 160.167,85.1667 165.5,86.5 Z"/></g>
<g><path style="opacity:1" fill="#db9665" d="M 128.5,102.5 C 125.413,111.306 124.747,120.306 126.5,129.5C 126.5,129.833 126.5,130.167 126.5,130.5C 124.439,126.722 123.439,122.556 123.5,118C 123.417,112.129 125.084,106.962 128.5,102.5 Z"/></g>
<g><path style="opacity:1" fill="#f3c651" d="M 164.5,135.5 C 163.192,134.768 161.858,133.934 160.5,133C 161.756,132.583 162.423,131.75 162.5,130.5C 162.714,128.856 162.38,127.356 161.5,126C 155.843,125.009 151.01,122.509 147,118.5C 144.88,110.711 147.713,106.377 155.5,105.5C 155.5,103.833 155.5,102.167 155.5,100.5C 157.5,100.5 159.5,100.5 161.5,100.5C 161.5,101.833 161.5,103.167 161.5,104.5C 163.989,104.298 166.323,104.798 168.5,106C 169.747,107.458 169.747,108.958 168.5,110.5C 164.236,110.769 159.903,110.936 155.5,111C 154.483,112.049 154.316,113.216 155,114.5C 159.58,116.442 164.08,118.609 168.5,121C 172.324,124.956 172.491,129.122 169,133.5C 167.67,134.582 166.17,135.249 164.5,135.5 Z"/></g>
<g><path style="opacity:1" fill="#b48797" d="M 190.5,110.5 C 191.785,113.589 192.451,116.922 192.5,120.5C 192.5,122.167 192.5,123.833 192.5,125.5C 191.833,126.5 191.167,127.5 190.5,128.5C 190.5,122.5 190.5,116.5 190.5,110.5 Z"/></g>
<g><path style="opacity:1" fill="#50c4fd" d="M 192.5,125.5 C 194.277,126.6 196.277,127.434 198.5,128C 206.555,129.231 214.555,129.397 222.5,128.5C 222.5,129.5 222.5,130.5 222.5,131.5C 234.081,133.882 245.747,134.549 257.5,133.5C 257.5,134.5 257.5,135.5 257.5,136.5C 272.448,137.624 287.448,138.457 302.5,139C 263.342,140.003 224.342,140.837 185.5,141.5C 185.167,141.5 184.833,141.5 184.5,141.5C 184.5,140.833 184.5,140.167 184.5,139.5C 187.78,136.612 189.78,132.945 190.5,128.5C 191.167,127.5 191.833,126.5 192.5,125.5 Z"/></g>
<g><path style="opacity:1" fill="#efb254" d="M 162.5,130.5 C 162.423,131.75 161.756,132.583 160.5,133C 161.858,133.934 163.192,134.768 164.5,135.5C 161.013,136.388 159.68,138.721 160.5,142.5C 156.5,143.167 154.833,141.5 155.5,137.5C 152.482,137.296 149.482,136.963 146.5,136.5C 146.244,134.208 146.577,132.041 147.5,130C 150.566,130.587 153.732,131.087 157,131.5C 158.924,131.419 160.757,131.086 162.5,130.5 Z"/></g>
<g><path style="opacity:1" fill="#c86f6f" d="M 190.5,128.5 C 189.78,132.945 187.78,136.612 184.5,139.5C 184.557,138.391 184.89,137.391 185.5,136.5C 187.171,133.796 188.837,131.129 190.5,128.5 Z"/></g>
<g><path style="opacity:0.999" fill="#fbdcf7" d="M 106.5,139.5 C 107.167,139.5 107.833,139.5 108.5,139.5C 109.312,153.15 109.645,166.817 109.5,180.5C 104.489,180.334 99.4889,180.501 94.5,181C 90,182.833 86.8333,186 85,190.5C 85.1811,219.498 85.6811,248.498 86.5,277.5C 86.5,285.5 86.5,293.5 86.5,301.5C 87.0402,326.844 87.0402,352.178 86.5,377.5C 81.3411,371.197 77.1744,364.197 74,356.5C 70.4208,346.712 66.9208,337.045 63.5,327.5C 50.6445,260.905 63.4779,199.572 102,143.5C 103.371,141.959 104.871,140.625 106.5,139.5 Z"/></g>
<g><path style="opacity:1" fill="#c9ebfe" d="M 184.5,141.5 C 184.833,141.5 185.167,141.5 185.5,141.5C 233.833,141.5 282.167,141.5 330.5,141.5C 330.5,148.167 330.5,154.833 330.5,161.5C 271.167,161.5 211.833,161.5 152.5,161.5C 152.5,158.833 152.5,156.167 152.5,153.5C 158.004,153.85 163.337,153.183 168.5,151.5C 174.593,149.412 179.926,146.079 184.5,141.5 Z"/></g>
<g><path style="opacity:1" fill="#d87f71" d="M 184.5,139.5 C 184.5,140.167 184.5,140.833 184.5,141.5C 179.926,146.079 174.593,149.412 168.5,151.5C 174.153,147.998 179.486,143.998 184.5,139.5 Z"/></g>
<g><path style="opacity:1" fill="#4fc4fe" d="M 375.5,160.5 C 375.5,161.833 375.5,163.167 375.5,164.5C 374.686,166.631 374.186,168.964 374,171.5C 373.667,169.833 373.333,168.167 373,166.5C 367.813,165.589 362.48,165.589 357,166.5C 354.046,166.406 353.879,165.906 356.5,165C 354.833,164.667 353.167,164.333 351.5,164C 345.254,163.945 339.254,162.778 333.5,160.5C 332.817,160.863 332.15,161.196 331.5,161.5C 331.586,157.143 331.92,152.81 332.5,148.5C 342.522,148.767 350.522,148.767 356.5,148.5C 356.137,150.911 357.137,152.411 359.5,153C 363.887,153.226 368.221,153.726 372.5,154.5C 373.086,154.291 373.586,153.957 374,153.5C 375.352,155.594 375.852,157.927 375.5,160.5 Z"/></g>
<g><path style="opacity:1" fill="#efbb52" d="M 132.5,130.5 C 140.354,145.635 152.687,150.802 169.5,146C 174.287,143.045 178.62,139.545 182.5,135.5C 183.391,136.11 184.391,136.443 185.5,136.5C 184.89,137.391 184.557,138.391 184.5,139.5C 179.486,143.998 174.153,147.998 168.5,151.5C 163.337,153.183 158.004,153.85 152.5,153.5C 145.155,151.995 138.821,148.662 133.5,143.5C 129.887,139.879 127.553,135.545 126.5,130.5C 126.5,130.167 126.5,129.833 126.5,129.5C 127.678,128.338 128.845,127.338 130,126.5C 130.2,128.32 131.034,129.653 132.5,130.5 Z"/></g>
<g><path style="opacity:1" fill="#4eb0fb" d="M 140.5,168.5 C 140.167,169.167 139.833,169.833 139.5,170.5C 136.5,171.5 134.5,173.5 133.5,176.5C 132.094,176.973 131.427,177.973 131.5,179.5C 129.926,181.102 129.259,183.102 129.5,185.5C 128.274,189.367 128.274,193.367 129.5,197.5C 129.5,198.167 129.5,198.833 129.5,199.5C 127.973,195.787 126.973,191.787 126.5,187.5C 125.719,188.729 125.219,190.062 125,191.5C 121.72,190.754 118.386,190.087 115,189.5C 113.229,190.347 112.063,191.68 111.5,193.5C 111.795,191.265 111.461,189.265 110.5,187.5C 110.5,185.167 110.5,182.833 110.5,180.5C 109.95,172.332 110.783,164.332 113,156.5C 123.816,158.356 134.649,160.356 145.5,162.5C 143.272,166.252 141.106,166.252 139,162.5C 139.311,163.935 139.145,165.268 138.5,166.5C 139.243,167.182 139.909,167.849 140.5,168.5 Z"/></g>
<g><path style="opacity:1" fill="#59bffb" d="M 375.5,164.5 C 375.5,172.167 375.5,179.833 375.5,187.5C 374.532,189.607 374.198,191.941 374.5,194.5C 374.5,195.833 374.5,197.167 374.5,198.5C 374.5,198.833 374.5,199.167 374.5,199.5C 374.818,204.032 374.485,208.366 373.5,212.5C 373.666,208.154 373.499,203.821 373,199.5C 372.667,200.5 372.333,201.5 372,202.5C 371.86,200.479 371.693,198.645 371.5,197C 365.511,195.899 359.511,194.732 353.5,193.5C 351.465,194.204 349.465,194.871 347.5,195.5C 347.818,200.032 347.485,204.366 346.5,208.5C 346.666,200.493 346.5,192.493 346,184.5C 344.269,182.383 342.102,180.883 339.5,180C 286.501,179.5 233.501,179.333 180.5,179.5C 231.665,178.667 282.998,178.167 334.5,178C 333.328,177.581 332.328,176.915 331.5,176C 321.714,174.427 311.881,173.26 302,172.5C 300.774,172.645 299.607,172.978 298.5,173.5C 297.614,172.675 297.281,171.675 297.5,170.5C 290.811,170.116 284.145,169.449 277.5,168.5C 274.151,169.008 270.818,169.175 267.5,169C 269.991,168.374 269.991,167.541 267.5,166.5C 261.856,165.535 256.189,164.702 250.5,164C 251.833,163.667 253.167,163.333 254.5,163C 220.331,162.832 186.331,162.332 152.5,161.5C 211.833,161.5 271.167,161.5 330.5,161.5C 330.833,161.5 331.167,161.5 331.5,161.5C 332.15,161.196 332.817,160.863 333.5,160.5C 339.254,162.778 345.254,163.945 351.5,164C 353.167,164.333 354.833,164.667 356.5,165C 353.879,165.906 354.046,166.406 357,166.5C 362.48,165.589 367.813,165.589 373,166.5C 373.333,168.167 373.667,169.833 374,171.5C 374.186,168.964 374.686,166.631 375.5,164.5 Z"/></g>
<g><path style="opacity:1" fill="#4fb7fc" d="M 133.5,143.5 C 138.821,148.662 145.155,151.995 152.5,153.5C 152.5,156.167 152.5,158.833 152.5,161.5C 186.331,162.332 220.331,162.832 254.5,163C 253.167,163.333 251.833,163.667 250.5,164C 256.189,164.702 261.856,165.535 267.5,166.5C 269.991,167.541 269.991,168.374 267.5,169C 270.818,169.175 274.151,169.008 277.5,168.5C 284.145,169.449 290.811,170.116 297.5,170.5C 297.281,171.675 297.614,172.675 298.5,173.5C 299.607,172.978 300.774,172.645 302,172.5C 311.881,173.26 321.714,174.427 331.5,176C 332.328,176.915 333.328,177.581 334.5,178C 282.998,178.167 231.665,178.667 180.5,179.5C 179.833,179.167 179.167,178.833 178.5,178.5C 178.573,176.973 177.906,175.973 176.5,175.5C 175.5,174.167 174.5,172.833 173.5,171.5C 171.053,168.101 167.72,165.935 163.5,165C 158.648,164.185 153.981,164.352 149.5,165.5C 146.407,166.213 143.407,167.213 140.5,168.5C 139.909,167.849 139.243,167.182 138.5,166.5C 139.145,165.268 139.311,163.935 139,162.5C 141.106,166.252 143.272,166.252 145.5,162.5C 134.649,160.356 123.816,158.356 113,156.5C 110.783,164.332 109.95,172.332 110.5,180.5C 110.167,180.5 109.833,180.5 109.5,180.5C 109.645,166.817 109.312,153.15 108.5,139.5C 108.5,135.167 108.5,130.833 108.5,126.5C 110.308,126.491 111.975,126.991 113.5,128C 110.879,128.906 111.046,129.406 114,129.5C 117.194,128.397 120.361,128.397 123.5,129.5C 125.334,133.51 127.167,137.51 129,141.5C 130.33,142.582 131.83,143.249 133.5,143.5 Z"/></g>
<g><path style="opacity:1" fill="#b2818f" d="M 149.5,165.5 C 153.981,164.352 158.648,164.185 163.5,165C 167.72,165.935 171.053,168.101 173.5,171.5C 170.06,169.397 166.393,167.563 162.5,166C 158.179,165.501 153.846,165.334 149.5,165.5 Z"/></g>
<g><path style="opacity:1" fill="#f9e34b" d="M 149.5,165.5 C 153.846,165.334 158.179,165.501 162.5,166C 166.393,167.563 170.06,169.397 173.5,171.5C 174.5,172.833 175.5,174.167 176.5,175.5C 176.427,177.027 177.094,178.027 178.5,178.5C 179.98,183.067 180.48,187.733 180,192.5C 179.667,190.5 179.333,188.5 179,186.5C 178.617,185.944 178.117,185.611 177.5,185.5C 174.268,177.212 168.268,172.212 159.5,170.5C 156.5,169.833 153.5,169.167 150.5,168.5C 153.898,168.82 157.232,168.487 160.5,167.5C 156.687,166.833 153.021,166.166 149.5,165.5 Z"/></g>
<g><path style="opacity:1" fill="#cc8371" d="M 139.5,170.5 C 138.5,171.833 137.5,173.167 136.5,174.5C 135.5,175.167 134.5,175.833 133.5,176.5C 134.5,173.5 136.5,171.5 139.5,170.5 Z"/></g>
<g><path style="opacity:1" fill="#f5df8b" d="M 149.5,165.5 C 153.021,166.166 156.687,166.833 160.5,167.5C 157.232,168.487 153.898,168.82 150.5,168.5C 143.227,170.557 137.727,174.89 134,181.5C 134.237,179.011 135.071,176.678 136.5,174.5C 137.5,173.167 138.5,171.833 139.5,170.5C 139.833,169.833 140.167,169.167 140.5,168.5C 143.407,167.213 146.407,166.213 149.5,165.5 Z"/></g>
<g><path style="opacity:1" fill="#d79662" d="M 176.5,175.5 C 177.906,175.973 178.573,176.973 178.5,178.5C 177.094,178.027 176.427,177.027 176.5,175.5 Z"/></g>
<g><path style="opacity:1" fill="#c57b7a" d="M 133.5,176.5 C 133.573,178.027 132.906,179.027 131.5,179.5C 131.427,177.973 132.094,176.973 133.5,176.5 Z"/></g>
<g><path style="opacity:1" fill="#d5effc" d="M 180.5,179.5 C 233.501,179.333 286.501,179.5 339.5,180C 342.102,180.883 344.269,182.383 346,184.5C 346.5,192.493 346.666,200.493 346.5,208.5C 345.768,215.476 345.435,222.476 345.5,229.5C 344.669,215.339 344.169,201.006 344,186.5C 342.457,184.622 340.624,183.122 338.5,182C 286.168,181.5 233.834,181.333 181.5,181.5C 180.662,181.158 180.328,180.492 180.5,179.5 Z"/></g>
<g><path style="opacity:1" fill="#cf916f" d="M 131.5,179.5 C 131.741,181.898 131.074,183.898 129.5,185.5C 129.259,183.102 129.926,181.102 131.5,179.5 Z"/></g>
<g><path style="opacity:1" fill="#f2c954" d="M 150.5,168.5 C 153.5,169.167 156.5,169.833 159.5,170.5C 149.825,169.09 142.325,172.424 137,180.5C 135.589,182.65 134.755,184.984 134.5,187.5C 133.198,192.036 133.198,196.703 134.5,201.5C 134.062,202.506 133.396,202.506 132.5,201.5C 131.85,199.816 130.85,198.483 129.5,197.5C 128.274,193.367 128.274,189.367 129.5,185.5C 131.074,183.898 131.741,181.898 131.5,179.5C 132.906,179.027 133.573,178.027 133.5,176.5C 134.5,175.833 135.5,175.167 136.5,174.5C 135.071,176.678 134.237,179.011 134,181.5C 137.727,174.89 143.227,170.557 150.5,168.5 Z"/></g>
<g><path style="opacity:1" fill="#9ad2fd" d="M 181.5,181.5 C 233.834,181.333 286.168,181.5 338.5,182C 340.624,183.122 342.457,184.622 344,186.5C 344.169,201.006 344.669,215.339 345.5,229.5C 345.5,230.833 345.5,232.167 345.5,233.5C 345.621,241.858 345.288,250.191 344.5,258.5C 344.158,259.338 343.492,259.672 342.5,259.5C 342.5,251.167 342.5,242.833 342.5,234.5C 343.495,223.679 343.828,212.679 343.5,201.5C 289.095,201.829 234.762,201.495 180.5,200.5C 182.754,194.289 183.087,187.955 181.5,181.5 Z"/></g>
<g><path style="opacity:1" fill="#262563" d="M 375.5,187.5 C 389.908,187.597 404.242,188.43 418.5,190C 419.667,191.167 420.833,192.333 422,193.5C 422.5,202.16 422.666,210.827 422.5,219.5C 421.505,231.655 421.171,243.989 421.5,256.5C 419.167,256.5 416.833,256.5 414.5,256.5C 414.5,248.5 414.5,240.5 414.5,232.5C 414.666,222.828 414.5,213.161 414,203.5C 411.384,198.44 407.217,195.774 401.5,195.5C 392.682,194.507 383.682,194.173 374.5,194.5C 374.198,191.941 374.532,189.607 375.5,187.5 Z"/></g>
<g><path style="opacity:1" fill="#fcf2d0" d="M 159.5,170.5 C 168.268,172.212 174.268,177.212 177.5,185.5C 179.76,199.195 174.426,208.695 161.5,214C 156.311,214.908 151.311,214.408 146.5,212.5C 137.455,206.74 133.455,198.407 134.5,187.5C 134.755,184.984 135.589,182.65 137,180.5C 142.325,172.424 149.825,169.09 159.5,170.5 Z"/></g>
<g><path style="opacity:1" fill="#f3c452" d="M 153.5,176.5 C 155.167,176.5 156.833,176.5 158.5,176.5C 158.5,177.833 158.5,179.167 158.5,180.5C 160.5,180.5 162.5,180.5 164.5,180.5C 164.714,182.144 164.38,183.644 163.5,185C 160.223,184.799 156.889,184.632 153.5,184.5C 153.286,186.144 153.62,187.644 154.5,189C 157.167,189.667 159.833,190.333 162.5,191C 165.601,194.502 166.101,198.335 164,202.5C 162.736,204.607 160.903,205.607 158.5,205.5C 158.5,206.833 158.5,208.167 158.5,209.5C 156.833,209.5 155.167,209.5 153.5,209.5C 153.5,208.5 153.5,207.5 153.5,206.5C 150.145,206.632 147.811,205.299 146.5,202.5C 146.608,201.558 146.941,200.725 147.5,200C 149.991,199.741 152.491,199.907 155,200.5C 156.973,200.691 158.473,200.024 159.5,198.5C 156.511,196.339 153.178,194.672 149.5,193.5C 146.693,190.722 145.86,187.389 147,183.5C 148.734,181.549 150.901,180.549 153.5,180.5C 153.5,179.167 153.5,177.833 153.5,176.5 Z"/></g>
<g><path style="opacity:1" fill="#e48159" d="M 110.5,187.5 C 111.461,189.265 111.795,191.265 111.5,193.5C 111.5,199.833 111.5,206.167 111.5,212.5C 111.812,217.701 110.978,222.701 109,227.5C 108.667,224.833 108.333,222.167 108,219.5C 104.408,219.074 102.908,217.074 103.5,213.5C 99.0917,213.938 97.4251,211.938 98.5,207.5C 95.9208,207.083 93.7542,207.75 92,209.5C 90.9712,202.929 91.4712,196.596 93.5,190.5C 94.0577,189.21 95.0577,188.377 96.5,188C 101.155,187.501 105.821,187.334 110.5,187.5 Z"/></g>
<g><path style="opacity:1" fill="#52b0f9" d="M 373.5,212.5 C 373.033,227.496 372.7,242.496 372.5,257.5C 372.167,257.5 371.833,257.5 371.5,257.5C 371.5,249.167 371.5,240.833 371.5,232.5C 369.833,232.5 368.167,232.5 366.5,232.5C 366.5,231.167 366.5,229.833 366.5,228.5C 360.186,227.546 354.519,227.212 349.5,227.5C 347.311,229.01 345.977,231.01 345.5,233.5C 345.5,232.167 345.5,230.833 345.5,229.5C 345.435,222.476 345.768,215.476 346.5,208.5C 347.485,204.366 347.818,200.032 347.5,195.5C 349.465,194.871 351.465,194.204 353.5,193.5C 359.511,194.732 365.511,195.899 371.5,197C 371.693,198.645 371.86,200.479 372,202.5C 372.333,201.5 372.667,200.5 373,199.5C 373.499,203.821 373.666,208.154 373.5,212.5 Z"/></g>
<g><path style="opacity:1" fill="#d0cb6e" d="M 374.5,194.5 C 383.682,194.173 392.682,194.507 401.5,195.5C 392.808,195.169 384.141,195.502 375.5,196.5C 383.657,197.167 391.657,197.833 399.5,198.5C 391.167,198.5 382.833,198.5 374.5,198.5C 374.5,197.167 374.5,195.833 374.5,194.5 Z"/></g>
<g><path style="opacity:1" fill="#faeb41" d="M 396.5,200.5 C 400.131,200.16 403.464,200.994 406.5,203C 407.823,203.816 408.489,204.983 408.5,206.5C 408.779,217.695 408.445,228.861 407.5,240C 407.167,240.833 406.833,241.667 406.5,242.5C 403.663,239.408 401.33,236.075 399.5,232.5C 398.5,232.5 397.5,232.5 396.5,232.5C 394.643,229.351 392.976,226.018 391.5,222.5C 388.057,222.65 386.057,220.983 385.5,217.5C 384.476,216.147 383.143,215.48 381.5,215.5C 381.798,211.829 380.298,209.163 377,207.5C 376.667,209.167 376.333,210.833 376,212.5C 375.501,208.514 375.334,204.514 375.5,200.5C 382.5,200.5 389.5,200.5 396.5,200.5 Z"/></g>
<g><path style="opacity:1" fill="#4eadfa" d="M 180.5,200.5 C 234.762,201.495 289.095,201.829 343.5,201.5C 343.828,212.679 343.495,223.679 342.5,234.5C 342.666,230.486 342.499,226.486 342,222.5C 340.103,220.984 337.936,220.317 335.5,220.5C 335.768,222.099 335.434,223.432 334.5,224.5C 334.5,219.167 334.5,213.833 334.5,208.5C 321.5,208.5 308.5,208.5 295.5,208.5C 295.5,213.833 295.5,219.167 295.5,224.5C 294.686,222.369 294.186,220.036 294,217.5C 293.781,218.938 293.281,220.271 292.5,221.5C 291.757,220.092 290.923,218.759 290,217.5C 283.2,217.859 275.7,217.859 267.5,217.5C 267.5,216.167 267.5,214.833 267.5,213.5C 264.5,213.5 261.5,213.5 258.5,213.5C 256.26,216.806 254.927,220.472 254.5,224.5C 254.5,218.833 254.5,213.167 254.5,207.5C 228.833,207.5 203.167,207.5 177.5,207.5C 177.5,207.167 177.5,206.833 177.5,206.5C 179.408,205.514 180.408,203.848 180.5,201.5C 180.5,201.167 180.5,200.833 180.5,200.5 Z"/></g>
<g><path style="opacity:1" fill="#f6eb48" d="M 401.5,195.5 C 407.217,195.774 411.384,198.44 414,203.5C 414.5,213.161 414.666,222.828 414.5,232.5C 413.833,240.01 413.167,247.677 412.5,255.5C 411.833,239.005 411.167,222.672 410.5,206.5C 408.512,201.66 404.845,198.993 399.5,198.5C 391.657,197.833 383.657,197.167 375.5,196.5C 384.141,195.502 392.808,195.169 401.5,195.5 Z"/></g>
<g><path style="opacity:1" fill="#a580a1" d="M 180.5,201.5 C 180.408,203.848 179.408,205.514 177.5,206.5C 177.75,204.326 178.75,202.659 180.5,201.5 Z"/></g>
<g><path style="opacity:1" fill="#f2c553" d="M 178.5,178.5 C 179.167,178.833 179.833,179.167 180.5,179.5C 180.328,180.492 180.662,181.158 181.5,181.5C 183.087,187.955 182.754,194.289 180.5,200.5C 180.5,200.833 180.5,201.167 180.5,201.5C 178.75,202.659 177.75,204.326 177.5,206.5C 174.833,208.5 172.5,210.833 170.5,213.5C 168.154,214.523 165.821,215.523 163.5,216.5C 158.156,216.666 152.823,216.499 147.5,216C 145.709,215.585 144.376,214.585 143.5,213C 144.448,212.517 145.448,212.351 146.5,212.5C 151.311,214.408 156.311,214.908 161.5,214C 174.426,208.695 179.76,199.195 177.5,185.5C 178.117,185.611 178.617,185.944 179,186.5C 179.333,188.5 179.667,190.5 180,192.5C 180.48,187.733 179.98,183.067 178.5,178.5 Z"/></g>
<g><path style="opacity:1" fill="#4fa0f8" d="M 129.5,199.5 C 131.801,203.48 134.134,207.48 136.5,211.5C 137.309,223.158 137.976,234.824 138.5,246.5C 137.936,242.992 136.936,239.492 135.5,236C 136.599,231.848 136.599,227.682 135.5,223.5C 132.193,222.842 129.36,222.842 127,223.5C 125.559,222.74 124.059,222.074 122.5,221.5C 119.579,222.407 116.579,222.74 113.5,222.5C 113.833,232.5 114.167,242.5 114.5,252.5C 114.167,252.5 113.833,252.5 113.5,252.5C 113.15,238.995 112.483,225.662 111.5,212.5C 111.5,206.167 111.5,199.833 111.5,193.5C 112.063,191.68 113.229,190.347 115,189.5C 118.386,190.087 121.72,190.754 125,191.5C 125.219,190.062 125.719,188.729 126.5,187.5C 126.973,191.787 127.973,195.787 129.5,199.5 Z"/></g>
<g><path style="opacity:1" fill="#ecb85c" d="M 134.5,187.5 C 133.455,198.407 137.455,206.74 146.5,212.5C 145.448,212.351 144.448,212.517 143.5,213C 144.376,214.585 145.709,215.585 147.5,216C 152.823,216.499 158.156,216.666 163.5,216.5C 161.152,217.952 158.486,218.618 155.5,218.5C 152.483,218.232 149.483,217.898 146.5,217.5C 144.544,216.508 142.544,215.508 140.5,214.5C 139.205,213.512 137.872,212.512 136.5,211.5C 134.134,207.48 131.801,203.48 129.5,199.5C 129.5,198.833 129.5,198.167 129.5,197.5C 130.85,198.483 131.85,199.816 132.5,201.5C 133.396,202.506 134.062,202.506 134.5,201.5C 133.198,196.703 133.198,192.036 134.5,187.5 Z"/></g>
<g><path style="opacity:1" fill="#f9e249" d="M 374.5,199.5 C 382.019,199.175 389.352,199.508 396.5,200.5C 389.5,200.5 382.5,200.5 375.5,200.5C 375.334,204.514 375.501,208.514 376,212.5C 376.333,210.833 376.667,209.167 377,207.5C 380.298,209.163 381.798,211.829 381.5,215.5C 383.143,215.48 384.476,216.147 385.5,217.5C 386.057,220.983 388.057,222.65 391.5,222.5C 392.976,226.018 394.643,229.351 396.5,232.5C 397.5,232.5 398.5,232.5 399.5,232.5C 401.33,236.075 403.663,239.408 406.5,242.5C 406.833,241.667 407.167,240.833 407.5,240C 408.445,228.861 408.779,217.695 408.5,206.5C 409.497,222.992 409.83,239.658 409.5,256.5C 400.983,256.174 392.65,256.507 384.5,257.5C 380.5,257.5 376.5,257.5 372.5,257.5C 372.7,242.496 373.033,227.496 373.5,212.5C 374.485,208.366 374.818,204.032 374.5,199.5 Z"/></g>
<g><path style="opacity:1" fill="#d9ecfc" d="M 177.5,207.5 C 203.167,207.5 228.833,207.5 254.5,207.5C 254.5,213.167 254.5,218.833 254.5,224.5C 218.5,224.5 182.5,224.5 146.5,224.5C 146.5,222.167 146.5,219.833 146.5,217.5C 149.483,217.898 152.483,218.232 155.5,218.5C 158.486,218.618 161.152,217.952 163.5,216.5C 165.821,215.523 168.154,214.523 170.5,213.5C 173.427,212.243 175.761,210.243 177.5,207.5 Z"/></g>
<g><path style="opacity:1" fill="#d98b88" d="M 177.5,206.5 C 177.5,206.833 177.5,207.167 177.5,207.5C 175.761,210.243 173.427,212.243 170.5,213.5C 172.5,210.833 174.833,208.5 177.5,206.5 Z"/></g>
<g><path style="opacity:1" fill="#95cdfd" d="M 334.5,224.5 C 321.5,225.833 308.5,225.833 295.5,224.5C 295.5,219.167 295.5,213.833 295.5,208.5C 308.5,208.5 321.5,208.5 334.5,208.5C 334.5,213.833 334.5,219.167 334.5,224.5 Z"/></g>
<g><path style="opacity:1" fill="#4ba5fb" d="M 295.5,224.5 C 308.5,225.833 321.5,225.833 334.5,224.5C 335.434,223.432 335.768,222.099 335.5,220.5C 337.936,220.317 340.103,220.984 342,222.5C 342.499,226.486 342.666,230.486 342.5,234.5C 342.5,242.833 342.5,251.167 342.5,259.5C 342.167,259.5 341.833,259.5 341.5,259.5C 341.829,253.794 341.495,248.128 340.5,242.5C 339.833,242.833 339.167,243.167 338.5,243.5C 337.568,241.234 336.234,239.234 334.5,237.5C 333.571,238.689 333.238,240.022 333.5,241.5C 320.833,241.5 308.167,241.5 295.5,241.5C 299.647,240.675 303.981,240.175 308.5,240C 308,239.5 307.5,239 307,238.5C 305.627,238.404 304.127,238.57 302.5,239C 303.905,237.731 305.571,237.231 307.5,237.5C 307.5,236.5 307.5,235.5 307.5,234.5C 300.588,234.021 293.755,233.021 287,231.5C 282.467,232.069 277.967,232.736 273.5,233.5C 272.548,231.955 272.215,230.288 272.5,228.5C 266.537,228.851 260.704,228.184 255,226.5C 251.933,227.582 248.766,228.248 245.5,228.5C 212.186,227.906 179.186,226.572 146.5,224.5C 182.5,224.5 218.5,224.5 254.5,224.5C 254.927,220.472 256.26,216.806 258.5,213.5C 261.5,213.5 264.5,213.5 267.5,213.5C 267.5,214.833 267.5,216.167 267.5,217.5C 275.7,217.859 283.2,217.859 290,217.5C 290.923,218.759 291.757,220.092 292.5,221.5C 293.281,220.271 293.781,218.938 294,217.5C 294.186,220.036 294.686,222.369 295.5,224.5 Z"/></g>
<g><path style="opacity:1" fill="#e0745a" d="M 93.5,190.5 C 91.4712,196.596 90.9712,202.929 92,209.5C 93.7542,207.75 95.9208,207.083 98.5,207.5C 97.4251,211.938 99.0917,213.938 103.5,213.5C 102.908,217.074 104.408,219.074 108,219.5C 108.333,222.167 108.667,224.833 109,227.5C 110.978,222.701 111.812,217.701 111.5,212.5C 112.483,225.662 113.15,238.995 113.5,252.5C 113.82,255.898 113.487,259.232 112.5,262.5C 111.476,261.147 110.143,260.48 108.5,260.5C 107.167,257.833 105.833,255.167 104.5,252.5C 101.5,252.167 99.8333,250.5 99.5,247.5C 98.5,247.5 97.5,247.5 96.5,247.5C 96.5,245.833 96.5,244.167 96.5,242.5C 95.325,242.719 94.325,242.386 93.5,241.5C 93.0057,239.974 92.339,238.641 91.5,237.5C 90.4173,222.521 90.2507,207.521 91,192.5C 91.7083,191.619 92.5416,190.953 93.5,190.5 Z"/></g>
<g><path style="opacity:1" fill="#e3e1c7" d="M 374.5,199.5 C 374.5,199.167 374.5,198.833 374.5,198.5C 382.833,198.5 391.167,198.5 399.5,198.5C 404.845,198.993 408.512,201.66 410.5,206.5C 410.5,223.167 410.5,239.833 410.5,256.5C 411.833,256.5 413.167,256.5 414.5,256.5C 414.5,256.833 414.5,257.167 414.5,257.5C 404.5,257.5 394.5,257.5 384.5,257.5C 392.65,256.507 400.983,256.174 409.5,256.5C 409.83,239.658 409.497,222.992 408.5,206.5C 408.489,204.983 407.823,203.816 406.5,203C 403.464,200.994 400.131,200.16 396.5,200.5C 389.352,199.508 382.019,199.175 374.5,199.5 Z"/></g>
<g><path style="opacity:1" fill="#4b9efa" d="M 140.5,214.5 C 142.544,215.508 144.544,216.508 146.5,217.5C 146.5,219.833 146.5,222.167 146.5,224.5C 179.186,226.572 212.186,227.906 245.5,228.5C 248.766,228.248 251.933,227.582 255,226.5C 260.704,228.184 266.537,228.851 272.5,228.5C 272.215,230.288 272.548,231.955 273.5,233.5C 277.967,232.736 282.467,232.069 287,231.5C 293.755,233.021 300.588,234.021 307.5,234.5C 307.5,235.5 307.5,236.5 307.5,237.5C 305.571,237.231 303.905,237.731 302.5,239C 304.127,238.57 305.627,238.404 307,238.5C 307.5,239 308,239.5 308.5,240C 303.981,240.175 299.647,240.675 295.5,241.5C 294.511,246.975 294.178,252.642 294.5,258.5C 293.313,255.054 292.646,251.387 292.5,247.5C 282.523,247.495 272.523,247.495 262.5,247.5C 262.5,245.833 262.5,244.167 262.5,242.5C 255.761,241.761 249.094,241.761 242.5,242.5C 242.5,247.833 242.5,253.167 242.5,258.5C 242.167,258.5 241.833,258.5 241.5,258.5C 241.5,253.167 241.5,247.833 241.5,242.5C 228.5,242.5 215.5,242.5 202.5,242.5C 202.167,242.5 201.833,242.5 201.5,242.5C 199.253,235.919 194.919,231.252 188.5,228.5C 187.791,227.596 186.791,227.263 185.5,227.5C 183.696,226.838 181.696,226.505 179.5,226.5C 176.473,226.287 173.807,226.953 171.5,228.5C 166.167,230.5 162.5,234.167 160.5,239.5C 159.833,239.5 159.5,239.833 159.5,240.5C 155.827,242.318 151.827,242.984 147.5,242.5C 147.5,247.5 147.5,252.5 147.5,257.5C 146.675,253.353 146.175,249.019 146,244.5C 145.667,244.833 145.333,245.167 145,245.5C 144.578,243.574 143.411,242.574 141.5,242.5C 140.552,235.512 139.886,228.345 139.5,221C 139.504,218.639 139.837,216.473 140.5,214.5 Z"/></g>
<g><path style="opacity:1" fill="#d0916a" d="M 185.5,227.5 C 180.797,227.437 176.13,227.771 171.5,228.5C 173.807,226.953 176.473,226.287 179.5,226.5C 181.696,226.505 183.696,226.838 185.5,227.5 Z"/></g>
<g><path style="opacity:1" fill="#f4dc8f" d="M 185.5,227.5 C 186.791,227.263 187.791,227.596 188.5,228.5C 181.867,228.676 175.534,230.01 169.5,232.5C 166.5,234.668 164,237.334 162,240.5C 161.617,239.944 161.117,239.611 160.5,239.5C 162.5,234.167 166.167,230.5 171.5,228.5C 176.13,227.771 180.797,227.437 185.5,227.5 Z"/></g>
<g><path style="opacity:1" fill="#f6df4e" d="M 188.5,228.5 C 194.919,231.252 199.253,235.919 201.5,242.5C 201.769,246.931 201.436,251.265 200.5,255.5C 199.596,254.791 199.263,253.791 199.5,252.5C 199.642,239.638 193.309,232.305 180.5,230.5C 176.98,230.93 173.646,231.93 170.5,233.5C 169.833,233.5 169.5,233.167 169.5,232.5C 175.534,230.01 181.867,228.676 188.5,228.5 Z"/></g>
<g><path style="opacity:1" fill="#fcf4cf" d="M 199.5,252.5 C 194.633,265.765 185.3,270.265 171.5,266C 163.524,260.076 160.691,252.243 163,242.5C 164.642,238.7 167.142,235.7 170.5,233.5C 173.646,231.93 176.98,230.93 180.5,230.5C 193.309,232.305 199.642,239.638 199.5,252.5 Z"/></g>
<g><path style="opacity:1" fill="#454383" d="M 422.5,219.5 C 422.5,231.833 422.5,244.167 422.5,256.5C 425.187,256.336 427.854,256.503 430.5,257C 431.056,257.383 431.389,257.883 431.5,258.5C 425.819,258.365 420.152,258.032 414.5,257.5C 414.5,257.167 414.5,256.833 414.5,256.5C 416.833,256.5 419.167,256.5 421.5,256.5C 421.171,243.989 421.505,231.655 422.5,219.5 Z"/></g>
<g><path style="opacity:1" fill="#4a94f9" d="M 138.5,246.5 C 139.263,254.142 139.597,261.809 139.5,269.5C 138.517,265.702 138.183,261.702 138.5,257.5C 131.872,256.892 125.205,257.225 118.5,258.5C 118.628,256.345 118.128,254.345 117,252.5C 116.667,253.167 116.333,253.833 116,254.5C 115.5,262.159 115.334,269.826 115.5,277.5C 115.167,277.5 114.833,277.5 114.5,277.5C 114.5,269.167 114.5,260.833 114.5,252.5C 114.167,242.5 113.833,232.5 113.5,222.5C 116.579,222.74 119.579,222.407 122.5,221.5C 124.059,222.074 125.559,222.74 127,223.5C 129.36,222.842 132.193,222.842 135.5,223.5C 136.599,227.682 136.599,231.848 135.5,236C 136.936,239.492 137.936,242.992 138.5,246.5 Z"/></g>
<g><path style="opacity:1" fill="#4899fa" d="M 341.5,259.5 C 330.134,259.849 318.801,260.682 307.5,262C 302.489,264.195 300.156,268.029 300.5,273.5C 298.833,273.5 297.167,273.5 295.5,273.5C 296.568,272.566 297.901,272.232 299.5,272.5C 299.799,270.396 299.466,268.396 298.5,266.5C 297.304,266.846 297.304,267.346 298.5,268C 293.858,267.937 289.191,267.604 284.5,267C 283.338,266.173 282.171,265.34 281,264.5C 277.211,265.562 273.377,265.729 269.5,265C 260.858,263.203 252.192,261.536 243.5,260C 242.944,259.617 242.611,259.117 242.5,258.5C 242.5,253.167 242.5,247.833 242.5,242.5C 249.094,241.761 255.761,241.761 262.5,242.5C 262.5,244.167 262.5,245.833 262.5,247.5C 272.523,247.495 282.523,247.495 292.5,247.5C 292.646,251.387 293.313,255.054 294.5,258.5C 307.833,258.5 321.167,258.5 334.5,258.5C 334.786,252.741 334.452,247.075 333.5,241.5C 333.238,240.022 333.571,238.689 334.5,237.5C 336.234,239.234 337.568,241.234 338.5,243.5C 339.167,243.167 339.833,242.833 340.5,242.5C 341.495,248.128 341.829,253.794 341.5,259.5 Z"/></g>
<g><path style="opacity:1" fill="#49a1fb" d="M 371.5,257.5 C 362.682,258.493 353.682,258.827 344.5,258.5C 345.288,250.191 345.621,241.858 345.5,233.5C 345.977,231.01 347.311,229.01 349.5,227.5C 354.519,227.212 360.186,227.546 366.5,228.5C 366.5,229.833 366.5,231.167 366.5,232.5C 368.167,232.5 369.833,232.5 371.5,232.5C 371.5,240.833 371.5,249.167 371.5,257.5 Z"/></g>
<g><path style="opacity:1" fill="#d8e2f3" d="M 159.5,240.5 C 157.977,247.27 158.311,253.936 160.5,260.5C 155.792,260.22 151.458,259.22 147.5,257.5C 147.5,252.5 147.5,247.5 147.5,242.5C 151.827,242.984 155.827,242.318 159.5,240.5 Z"/></g>
<g><path style="opacity:1" fill="#ddebfc" d="M 202.5,242.5 C 215.5,242.5 228.5,242.5 241.5,242.5C 241.5,247.833 241.5,253.167 241.5,258.5C 228.167,258.5 214.833,258.5 201.5,258.5C 202.4,253.228 202.733,247.895 202.5,242.5 Z"/></g>
<g><path style="opacity:1" fill="#f2c253" d="M 178.5,236.5 C 179.833,236.5 181.167,236.5 182.5,236.5C 182.5,237.5 182.5,238.5 182.5,239.5C 185.95,238.756 187.616,240.09 187.5,243.5C 184.5,243.5 181.5,243.5 178.5,243.5C 178.351,244.552 178.517,245.552 179,246.5C 181.979,247.547 184.812,248.881 187.5,250.5C 189.926,256.053 188.259,259.387 182.5,260.5C 182.5,261.833 182.5,263.167 182.5,264.5C 181.5,264.5 180.5,264.5 179.5,264.5C 179.67,263.178 179.337,262.011 178.5,261C 176.567,260.749 174.734,260.249 173,259.5C 172.517,258.552 172.351,257.552 172.5,256.5C 176.167,256.5 179.833,256.5 183.5,256.5C 183.719,255.325 183.386,254.325 182.5,253.5C 179.875,252.236 177.208,251.069 174.5,250C 170.955,244.496 172.289,240.996 178.5,239.5C 178.5,238.5 178.5,237.5 178.5,236.5 Z"/></g>
<g><path style="opacity:1" fill="#94c5fc" d="M 295.5,241.5 C 308.167,241.5 320.833,241.5 333.5,241.5C 334.452,247.075 334.786,252.741 334.5,258.5C 321.167,258.5 307.833,258.5 294.5,258.5C 294.178,252.642 294.511,246.975 295.5,241.5 Z"/></g>
<g><path style="opacity:1" fill="#df9773" d="M 201.5,242.5 C 201.833,242.5 202.167,242.5 202.5,242.5C 202.733,247.895 202.4,253.228 201.5,258.5C 201.167,258.5 200.833,258.5 200.5,258.5C 200.5,257.5 200.5,256.5 200.5,255.5C 201.436,251.265 201.769,246.931 201.5,242.5 Z"/></g>
<g><path style="opacity:1" fill="#ebe170" d="M 410.5,206.5 C 411.167,222.672 411.833,239.005 412.5,255.5C 413.167,247.677 413.833,240.01 414.5,232.5C 414.5,240.5 414.5,248.5 414.5,256.5C 413.167,256.5 411.833,256.5 410.5,256.5C 410.5,239.833 410.5,223.167 410.5,206.5 Z"/></g>
<g><path style="opacity:1" fill="#231b53" d="M 109.5,180.5 C 109.833,180.5 110.167,180.5 110.5,180.5C 110.5,182.833 110.5,185.167 110.5,187.5C 105.821,187.334 101.155,187.501 96.5,188C 95.0577,188.377 94.0577,189.21 93.5,190.5C 92.5416,190.953 91.7083,191.619 91,192.5C 90.2507,207.521 90.4173,222.521 91.5,237.5C 91.2013,251.549 91.5346,265.549 92.5,279.5C 92.349,293.516 92.6823,307.516 93.5,321.5C 93.5,325.167 93.5,328.833 93.5,332.5C 92.8954,325.555 91.8954,318.555 90.5,311.5C 91.4604,305.851 91.6271,300.185 91,294.5C 90.1632,300.837 89.4966,300.503 89,293.5C 88.5172,294.448 88.3505,295.448 88.5,296.5C 87.8333,290.167 87.1667,283.833 86.5,277.5C 85.6811,248.498 85.1811,219.498 85,190.5C 86.8333,186 90,182.833 94.5,181C 99.4889,180.501 104.489,180.334 109.5,180.5 Z"/></g>
<g><path style="opacity:1" fill="#edbc59" d="M 169.5,232.5 C 169.5,233.167 169.833,233.5 170.5,233.5C 167.142,235.7 164.642,238.7 163,242.5C 160.691,252.243 163.524,260.076 171.5,266C 185.3,270.265 194.633,265.765 199.5,252.5C 199.263,253.791 199.596,254.791 200.5,255.5C 200.5,256.5 200.5,257.5 200.5,258.5C 199.662,258.842 199.328,259.508 199.5,260.5C 191.763,271.196 181.763,274.03 169.5,269C 165.973,266.638 162.973,263.804 160.5,260.5C 158.311,253.936 157.977,247.27 159.5,240.5C 159.5,239.833 159.833,239.5 160.5,239.5C 161.117,239.611 161.617,239.944 162,240.5C 164,237.334 166.5,234.668 169.5,232.5 Z"/></g>
<g><path style="opacity:1" fill="#4b91f9" d="M 141.5,242.5 C 143.411,242.574 144.578,243.574 145,245.5C 145.333,245.167 145.667,244.833 146,244.5C 146.175,249.019 146.675,253.353 147.5,257.5C 151.458,259.22 155.792,260.22 160.5,260.5C 162.973,263.804 165.973,266.638 169.5,269C 181.763,274.03 191.763,271.196 199.5,260.5C 213.598,259.849 227.598,259.183 241.5,258.5C 241.833,258.5 242.167,258.5 242.5,258.5C 242.611,259.117 242.944,259.617 243.5,260C 252.192,261.536 260.858,263.203 269.5,265C 273.377,265.729 277.211,265.562 281,264.5C 282.171,265.34 283.338,266.173 284.5,267C 289.191,267.604 293.858,267.937 298.5,268C 297.304,267.346 297.304,266.846 298.5,266.5C 299.466,268.396 299.799,270.396 299.5,272.5C 297.901,272.232 296.568,272.566 295.5,273.5C 294.514,277.97 294.181,282.637 294.5,287.5C 293.549,286.081 293.216,284.415 293.5,282.5C 286.44,283.117 279.44,283.117 272.5,282.5C 272.5,280.833 272.5,279.167 272.5,277.5C 268.894,277.789 265.394,277.456 262,276.5C 261.814,279.036 261.314,281.369 260.5,283.5C 260.5,280.5 260.5,277.5 260.5,274.5C 246.5,274.5 232.5,274.5 218.5,274.5C 214.5,274.5 210.5,274.5 206.5,274.5C 187.167,274.5 167.833,274.5 148.5,274.5C 148.5,279.833 148.5,285.167 148.5,290.5C 147.834,287.642 147.167,284.642 146.5,281.5C 145.473,280.209 144.473,280.209 143.5,281.5C 142.135,268.543 141.469,255.543 141.5,242.5 Z"/></g>
<g><path style="opacity:1" fill="#8ab5f5" d="M 200.5,258.5 C 200.833,258.5 201.167,258.5 201.5,258.5C 214.833,258.5 228.167,258.5 241.5,258.5C 227.598,259.183 213.598,259.849 199.5,260.5C 199.328,259.508 199.662,258.842 200.5,258.5 Z"/></g>
<g><path style="opacity:1" fill="#de675c" d="M 91.5,237.5 C 92.339,238.641 93.0057,239.974 93.5,241.5C 94.325,242.386 95.325,242.719 96.5,242.5C 96.5,244.167 96.5,245.833 96.5,247.5C 97.5,247.5 98.5,247.5 99.5,247.5C 99.8333,250.5 101.5,252.167 104.5,252.5C 105.833,255.167 107.167,257.833 108.5,260.5C 110.143,260.48 111.476,261.147 112.5,262.5C 113.487,259.232 113.82,255.898 113.5,252.5C 113.833,252.5 114.167,252.5 114.5,252.5C 114.5,260.833 114.5,269.167 114.5,277.5C 114.693,288.838 115.027,300.172 115.5,311.5C 115.013,312.473 114.513,313.473 114,314.5C 112.599,312.808 110.766,312.141 108.5,312.5C 108.5,310.833 108.5,309.167 108.5,307.5C 106.833,307.5 105.167,307.5 103.5,307.5C 103.5,305.833 103.5,304.167 103.5,302.5C 101.833,302.5 100.167,302.5 98.5,302.5C 98.5,299.167 98.5,295.833 98.5,292.5C 97.1667,292.5 95.8333,292.5 94.5,292.5C 94.2296,287.972 93.5629,283.639 92.5,279.5C 91.5346,265.549 91.2013,251.549 91.5,237.5 Z"/></g>
<g><path style="opacity:1" fill="#8fbafa" d="M 295.5,273.5 C 297.167,273.5 298.833,273.5 300.5,273.5C 300.553,279.196 300.22,284.862 299.5,290.5C 297.833,290.5 296.167,290.5 294.5,290.5C 294.5,289.5 294.5,288.5 294.5,287.5C 294.181,282.637 294.514,277.97 295.5,273.5 Z"/></g>
<g><path style="opacity:1" fill="#4687f9" d="M 139.5,269.5 C 140.403,277.458 140.736,285.458 140.5,293.5C 139.778,293.082 139.278,292.416 139,291.5C 133.928,292.471 128.762,292.805 123.5,292.5C 123.5,290.833 123.5,289.167 123.5,287.5C 121.5,287.5 119.5,287.5 117.5,287.5C 117.844,291.228 118.51,294.895 119.5,298.5C 117.605,304.276 116.939,310.276 117.5,316.5C 116.549,315.081 116.216,313.415 116.5,311.5C 116.307,300.162 115.973,288.828 115.5,277.5C 115.334,269.826 115.5,262.159 116,254.5C 116.333,253.833 116.667,253.167 117,252.5C 118.128,254.345 118.628,256.345 118.5,258.5C 125.205,257.225 131.872,256.892 138.5,257.5C 138.183,261.702 138.517,265.702 139.5,269.5 Z"/></g>
<g><path style="opacity:1" fill="#dbe8fc" d="M 206.5,274.5 C 203.761,277.233 201.427,280.233 199.5,283.5C 198.781,285.764 198.448,288.097 198.5,290.5C 181.833,290.5 165.167,290.5 148.5,290.5C 148.5,285.167 148.5,279.833 148.5,274.5C 167.833,274.5 187.167,274.5 206.5,274.5 Z"/></g>
<g><path style="opacity:1" fill="#dbe7fa" d="M 218.5,275.5 C 218.5,275.167 218.5,274.833 218.5,274.5C 232.5,274.5 246.5,274.5 260.5,274.5C 260.5,277.5 260.5,280.5 260.5,283.5C 260.5,285.833 260.5,288.167 260.5,290.5C 259.833,290.5 259.167,290.5 258.5,290.5C 248.167,290.5 237.833,290.5 227.5,290.5C 228.732,282.784 225.732,277.784 218.5,275.5 Z"/></g>
<g><path style="opacity:1" fill="#f6e069" d="M 218.5,275.5 C 225.732,277.784 228.732,282.784 227.5,290.5C 227.5,291.167 227.5,291.833 227.5,292.5C 226.833,292.5 226.167,292.5 225.5,292.5C 226.945,283.372 223.112,278.372 214,277.5C 210.472,277.522 207.306,278.522 204.5,280.5C 208.199,276.487 212.865,274.82 218.5,275.5 Z"/></g>
<g><path style="opacity:1" fill="#efcd9b" d="M 206.5,274.5 C 210.5,274.5 214.5,274.5 218.5,274.5C 218.5,274.833 218.5,275.167 218.5,275.5C 212.865,274.82 208.199,276.487 204.5,280.5C 203.29,280.932 202.29,281.599 201.5,282.5C 200.833,282.833 200.167,283.167 199.5,283.5C 201.427,280.233 203.761,277.233 206.5,274.5 Z"/></g>
<g><path style="opacity:1" fill="#fcf4cf" d="M 225.5,292.5 C 221.982,299.517 216.316,302.017 208.5,300C 205.619,298.749 203.786,296.583 203,293.5C 202.76,289.748 202.26,286.081 201.5,282.5C 202.29,281.599 203.29,280.932 204.5,280.5C 207.306,278.522 210.472,277.522 214,277.5C 223.112,278.372 226.945,283.372 225.5,292.5 Z"/></g>
<g><path style="opacity:1" fill="#f2c75a" d="M 212.5,280.5 C 214.5,281.167 216.5,281.833 218.5,282.5C 218.5,283.5 218.5,284.5 218.5,285.5C 216.396,285.201 214.396,285.534 212.5,286.5C 214.908,287.453 217.075,288.787 219,290.5C 219.781,291.944 219.614,293.277 218.5,294.5C 216.246,295.124 214.579,296.457 213.5,298.5C 211.76,297.164 210.093,295.83 208.5,294.5C 210.833,293.833 213.167,293.167 215.5,292.5C 213.434,291.094 211.268,289.76 209,288.5C 208.333,287.167 208.333,285.833 209,284.5C 210.388,283.264 211.554,281.931 212.5,280.5 Z"/></g>
<g><path style="opacity:1" fill="#81a7f0" d="M 148.5,290.5 C 165.167,290.5 181.833,290.5 198.5,290.5C 199.338,290.842 199.672,291.508 199.5,292.5C 182.402,291.847 165.402,291.18 148.5,290.5 Z"/></g>
<g><path style="opacity:1" fill="#83a7ee" d="M 227.5,290.5 C 237.833,290.5 248.167,290.5 258.5,290.5C 258.158,291.338 257.492,291.672 256.5,291.5C 246.75,291.194 237.084,291.527 227.5,292.5C 227.5,291.833 227.5,291.167 227.5,290.5 Z"/></g>
<g><path style="opacity:1" fill="#468af8" d="M 294.5,287.5 C 294.5,288.5 294.5,289.5 294.5,290.5C 296.167,290.5 297.833,290.5 299.5,290.5C 299.5,295.833 299.5,301.167 299.5,306.5C 297.833,306.5 296.167,306.5 294.5,306.5C 294.5,311.833 294.5,317.167 294.5,322.5C 293.673,317.015 293.173,311.348 293,305.5C 291.933,304.809 290.766,304.309 289.5,304C 290.167,303.667 290.833,303.333 291.5,303C 291.018,301.992 290.852,300.825 291,299.5C 289.442,302.021 287.275,303.688 284.5,304.5C 289.322,298.797 287.989,295.797 280.5,295.5C 280.607,293.097 279.607,291.264 277.5,290C 273.409,288.773 269.909,289.606 267,292.5C 265.211,290.771 263.044,290.104 260.5,290.5C 260.5,288.167 260.5,285.833 260.5,283.5C 261.314,281.369 261.814,279.036 262,276.5C 265.394,277.456 268.894,277.789 272.5,277.5C 272.5,279.167 272.5,280.833 272.5,282.5C 279.44,283.117 286.44,283.117 293.5,282.5C 293.216,284.415 293.549,286.081 294.5,287.5 Z"/></g>
<g><path style="opacity:1" fill="#e9be69" d="M 201.5,282.5 C 202.26,286.081 202.76,289.748 203,293.5C 203.786,296.583 205.619,298.749 208.5,300C 216.316,302.017 221.982,299.517 225.5,292.5C 226.167,292.5 226.833,292.5 227.5,292.5C 223.137,301.684 216.137,304.851 206.5,302C 203.177,299.517 200.843,296.351 199.5,292.5C 199.672,291.508 199.338,290.842 198.5,290.5C 198.448,288.097 198.781,285.764 199.5,283.5C 200.167,283.167 200.833,282.833 201.5,282.5 Z"/></g>
<g><path style="opacity:1" fill="#201e5b" d="M 284.5,304.5 C 283.751,308.054 282.918,311.72 282,315.5C 281.292,316.381 280.458,317.047 279.5,317.5C 278.599,316.71 277.932,315.71 277.5,314.5C 278.092,311.873 278.425,309.206 278.5,306.5C 276.408,306.561 274.908,307.561 274,309.5C 273.802,307.089 272.636,305.423 270.5,304.5C 266.261,306.454 261.928,308.121 257.5,309.5C 253.888,310.076 250.888,309.076 248.5,306.5C 245.774,299.555 248.108,296.888 255.5,298.5C 255.448,296.097 255.781,293.764 256.5,291.5C 257.492,291.672 258.158,291.338 258.5,290.5C 259.167,290.5 259.833,290.5 260.5,290.5C 263.044,290.104 265.211,290.771 267,292.5C 269.909,289.606 273.409,288.773 277.5,290C 279.607,291.264 280.607,293.097 280.5,295.5C 287.989,295.797 289.322,298.797 284.5,304.5 Z"/></g>
<g><path style="opacity:1" fill="#bbd2fb" d="M 136.5,211.5 C 137.872,212.512 139.205,213.512 140.5,214.5C 139.837,216.473 139.504,218.639 139.5,221C 139.886,228.345 140.552,235.512 141.5,242.5C 141.469,255.543 142.135,268.543 143.5,281.5C 143.547,293.355 144.214,305.022 145.5,316.5C 145.334,323.175 145.5,329.842 146,336.5C 147.122,338.624 148.622,340.457 150.5,342C 164.163,342.5 177.829,342.667 191.5,342.5C 178.208,344.482 164.541,345.149 150.5,344.5C 146.391,342.887 143.891,339.887 143,335.5C 142.501,331.848 142.335,328.182 142.5,324.5C 142.613,314.091 141.947,303.758 140.5,293.5C 140.736,285.458 140.403,277.458 139.5,269.5C 139.597,261.809 139.263,254.142 138.5,246.5C 137.976,234.824 137.309,223.158 136.5,211.5 Z"/></g>
<g><path style="opacity:1" fill="#433d76" d="M 86.5,277.5 C 87.1667,283.833 87.8333,290.167 88.5,296.5C 88.5,311.167 88.5,325.833 88.5,340.5C 87.8333,327.5 87.1667,314.5 86.5,301.5C 86.5,293.5 86.5,285.5 86.5,277.5 Z"/></g>
<g><path style="opacity:1" fill="#dc5960" d="M 92.5,279.5 C 93.5629,283.639 94.2296,287.972 94.5,292.5C 95.8333,292.5 97.1667,292.5 98.5,292.5C 98.5,295.833 98.5,299.167 98.5,302.5C 100.167,302.5 101.833,302.5 103.5,302.5C 103.5,304.167 103.5,305.833 103.5,307.5C 105.167,307.5 106.833,307.5 108.5,307.5C 108.5,309.167 108.5,310.833 108.5,312.5C 110.766,312.141 112.599,312.808 114,314.5C 114.513,313.473 115.013,312.473 115.5,311.5C 115.833,311.5 116.167,311.5 116.5,311.5C 116.216,313.415 116.549,315.081 117.5,316.5C 117.5,324.833 117.5,333.167 117.5,341.5C 117.666,347.509 117.499,353.509 117,359.5C 116.29,358.027 115.124,357.36 113.5,357.5C 111.937,353.93 109.937,350.597 107.5,347.5C 106.264,346.754 104.93,346.421 103.5,346.5C 103.597,342.308 101.764,340.975 98,342.5C 96.9609,341.29 95.7942,340.29 94.5,339.5C 94.8229,333.31 94.4896,327.31 93.5,321.5C 92.6823,307.516 92.349,293.516 92.5,279.5 Z"/></g>
<g><path style="opacity:1" fill="#4a85f8" d="M 148.5,290.5 C 165.402,291.18 182.402,291.847 199.5,292.5C 200.843,296.351 203.177,299.517 206.5,302C 216.137,304.851 223.137,301.684 227.5,292.5C 237.084,291.527 246.75,291.194 256.5,291.5C 255.781,293.764 255.448,296.097 255.5,298.5C 248.108,296.888 245.774,299.555 248.5,306.5C 216.167,306.5 183.833,306.5 151.5,306.5C 151.5,311.833 151.5,317.167 151.5,322.5C 150.7,317.306 149.867,311.972 149,306.5C 148.641,309.544 147.974,309.878 147,307.5C 146.304,310.478 145.804,313.478 145.5,316.5C 144.214,305.022 143.547,293.355 143.5,281.5C 144.473,280.209 145.473,280.209 146.5,281.5C 147.167,284.642 147.834,287.642 148.5,290.5 Z"/></g>
<g><path style="opacity:1" fill="#dbe6fe" d="M 248.5,306.5 C 250.888,309.076 253.888,310.076 257.5,309.5C 257.263,310.791 257.596,311.791 258.5,312.5C 258.506,316.157 259.506,319.49 261.5,322.5C 224.833,322.5 188.167,322.5 151.5,322.5C 151.5,317.167 151.5,311.833 151.5,306.5C 183.833,306.5 216.167,306.5 248.5,306.5 Z"/></g>
<g><path style="opacity:1" fill="#df8b6b" d="M 277.5,314.5 C 274.541,311.577 271.375,308.91 268,306.5C 267.683,308.301 267.016,308.634 266,307.5C 263.411,309.234 260.911,310.9 258.5,312.5C 257.596,311.791 257.263,310.791 257.5,309.5C 261.928,308.121 266.261,306.454 270.5,304.5C 272.636,305.423 273.802,307.089 274,309.5C 274.908,307.561 276.408,306.561 278.5,306.5C 278.425,309.206 278.092,311.873 277.5,314.5 Z"/></g>
<g><path style="opacity:1" fill="#2b317c" d="M 371.5,257.5 C 371.833,257.5 372.167,257.5 372.5,257.5C 376.5,257.5 380.5,257.5 384.5,257.5C 394.5,257.5 404.5,257.5 414.5,257.5C 420.152,258.032 425.819,258.365 431.5,258.5C 433.044,258.703 434.378,259.37 435.5,260.5C 436.183,260.137 436.85,259.804 437.5,259.5C 438.909,281.464 439.575,303.464 439.5,325.5C 438.679,322.359 438.179,319.025 438,315.5C 438.017,329.276 437.184,342.943 435.5,356.5C 434.167,356.5 432.833,356.5 431.5,356.5C 431.134,351.532 430.634,351.866 430,357.5C 429.583,356.244 428.75,355.577 427.5,355.5C 428.206,351.115 426.873,347.615 423.5,345C 418.833,344.333 414.167,344.333 409.5,345C 406.317,346.018 404.984,348.185 405.5,351.5C 405.667,352.833 405.833,354.167 406,355.5C 407.376,356.705 408.542,358.038 409.5,359.5C 407.516,359.383 405.85,360.05 404.5,361.5C 402.533,358.962 400.366,356.628 398,354.5C 396.697,354.978 395.531,355.645 394.5,356.5C 396.355,352.453 395.688,348.953 392.5,346C 387.964,344.621 383.297,344.121 378.5,344.5C 384.347,342.986 390.347,342.652 396.5,343.5C 396.5,342.167 396.5,340.833 396.5,339.5C 390.08,338.299 383.747,337.299 377.5,336.5C 382.179,336.666 386.845,336.499 391.5,336C 396.778,331.491 396.778,327.158 391.5,323C 386.845,322.501 382.179,322.334 377.5,322.5C 381.97,321.514 386.637,321.181 391.5,321.5C 391.5,320.167 391.5,318.833 391.5,317.5C 389.833,317.5 388.167,317.5 386.5,317.5C 386.5,315.833 386.5,314.167 386.5,312.5C 383.167,312.5 379.833,312.5 376.5,312.5C 376.5,310.833 376.5,309.167 376.5,307.5C 355.66,307.831 334.993,307.497 314.5,306.5C 322.167,306.5 329.833,306.5 337.5,306.5C 367.502,306.667 397.502,306.5 427.5,306C 428.667,304.833 429.833,303.667 431,302.5C 431.832,292.483 431.666,282.483 430.5,272.5C 429.019,271.52 427.685,270.353 426.5,269C 388.998,268.169 351.664,268.336 314.5,269.5C 312.77,270.026 311.436,271.026 310.5,272.5C 309.662,272.842 309.328,273.508 309.5,274.5C 307.627,278.515 306.627,282.849 306.5,287.5C 304.508,287.328 302.842,287.995 301.5,289.5C 300.833,295.319 300.167,300.986 299.5,306.5C 299.5,301.167 299.5,295.833 299.5,290.5C 300.22,284.862 300.553,279.196 300.5,273.5C 300.156,268.029 302.489,264.195 307.5,262C 318.801,260.682 330.134,259.849 341.5,259.5C 341.833,259.5 342.167,259.5 342.5,259.5C 343.492,259.672 344.158,259.338 344.5,258.5C 353.682,258.827 362.682,258.493 371.5,257.5 Z"/></g>
<g><path style="opacity:1" fill="#d64596" d="M 310.5,272.5 C 312.833,273.167 315.167,273.833 317.5,274.5C 315.589,274.574 314.422,275.574 314,277.5C 313.333,285.5 313.333,293.5 314,301.5C 314.5,302 315,302.5 315.5,303C 332.405,304.471 349.405,304.971 366.5,304.5C 356.833,305.167 347.167,305.833 337.5,306.5C 329.833,306.5 322.167,306.5 314.5,306.5C 312.496,305.327 310.996,303.66 310,301.5C 309.5,292.506 309.334,283.506 309.5,274.5C 309.328,273.508 309.662,272.842 310.5,272.5 Z"/></g>
<g><path style="opacity:1" fill="#b83eb1" d="M 314.5,269.5 C 351.664,268.336 388.998,268.169 426.5,269C 427.685,270.353 429.019,271.52 430.5,272.5C 431.666,282.483 431.832,292.483 431,302.5C 429.833,303.667 428.667,304.833 427.5,306C 397.502,306.5 367.502,306.667 337.5,306.5C 347.167,305.833 356.833,305.167 366.5,304.5C 374.833,304.5 383.167,304.5 391.5,304.5C 402.219,304.81 412.885,304.477 423.5,303.5C 423.833,299.833 424.167,296.167 424.5,292.5C 424.678,287.035 424.011,281.701 422.5,276.5C 421.692,276.192 421.025,275.692 420.5,275C 400.836,274.5 381.169,274.333 361.5,274.5C 360.411,272.883 358.744,272.05 356.5,272C 358.167,271.667 359.833,271.333 361.5,271C 345.864,269.681 330.197,269.181 314.5,269.5 Z"/></g>
<g><path style="opacity:1" fill="#ce64c2" d="M 361.5,274.5 C 381.169,274.333 400.836,274.5 420.5,275C 421.025,275.692 421.692,276.192 422.5,276.5C 424.011,281.701 424.678,287.035 424.5,292.5C 424.167,296.167 423.833,299.833 423.5,303.5C 412.885,304.477 402.219,304.81 391.5,304.5C 392.598,303.603 392.598,302.77 391.5,302C 389.866,301.506 388.199,301.34 386.5,301.5C 387.167,297.5 385.5,295.833 381.5,296.5C 381.5,293.5 381.5,290.5 381.5,287.5C 379.833,287.5 378.167,287.5 376.5,287.5C 376.5,285.833 376.5,284.167 376.5,282.5C 374.833,282.5 373.167,282.5 371.5,282.5C 371.5,280.833 371.5,279.167 371.5,277.5C 367.909,277.055 364.576,276.055 361.5,274.5 Z"/></g>
<g><path style="opacity:1" fill="#d665b8" d="M 342.5,274.5 C 348.833,274.5 355.167,274.5 361.5,274.5C 364.576,276.055 367.909,277.055 371.5,277.5C 371.5,279.167 371.5,280.833 371.5,282.5C 373.167,282.5 374.833,282.5 376.5,282.5C 376.5,284.167 376.5,285.833 376.5,287.5C 378.167,287.5 379.833,287.5 381.5,287.5C 381.5,290.5 381.5,293.5 381.5,296.5C 385.5,295.833 387.167,297.5 386.5,301.5C 388.199,301.34 389.866,301.506 391.5,302C 392.598,302.77 392.598,303.603 391.5,304.5C 383.167,304.5 374.833,304.5 366.5,304.5C 367.919,303.549 369.585,303.216 371.5,303.5C 371.5,301.5 371.5,299.5 371.5,297.5C 369.833,297.5 368.167,297.5 366.5,297.5C 366.5,295.833 366.5,294.167 366.5,292.5C 364.833,292.5 363.167,292.5 361.5,292.5C 361.5,290.833 361.5,289.167 361.5,287.5C 359.833,287.5 358.167,287.5 356.5,287.5C 356.5,285.833 356.5,284.167 356.5,282.5C 354.833,282.5 353.167,282.5 351.5,282.5C 351.5,280.833 351.5,279.167 351.5,277.5C 348.15,277.665 344.817,277.498 341.5,277C 342.252,276.329 342.586,275.496 342.5,274.5 Z"/></g>
<g><path style="opacity:1" fill="#dc67b0" d="M 317.5,274.5 C 325.833,274.5 334.167,274.5 342.5,274.5C 342.586,275.496 342.252,276.329 341.5,277C 344.817,277.498 348.15,277.665 351.5,277.5C 351.5,279.167 351.5,280.833 351.5,282.5C 353.167,282.5 354.833,282.5 356.5,282.5C 356.5,284.167 356.5,285.833 356.5,287.5C 358.167,287.5 359.833,287.5 361.5,287.5C 361.5,289.167 361.5,290.833 361.5,292.5C 363.167,292.5 364.833,292.5 366.5,292.5C 366.5,294.167 366.5,295.833 366.5,297.5C 368.167,297.5 369.833,297.5 371.5,297.5C 371.5,299.5 371.5,301.5 371.5,303.5C 369.585,303.216 367.919,303.549 366.5,304.5C 349.405,304.971 332.405,304.471 315.5,303C 315,302.5 314.5,302 314,301.5C 313.333,293.5 313.333,285.5 314,277.5C 314.422,275.574 315.589,274.574 317.5,274.5 Z"/></g>
<g><path style="opacity:1" fill="#ce44a4" d="M 314.5,269.5 C 330.197,269.181 345.864,269.681 361.5,271C 359.833,271.333 358.167,271.667 356.5,272C 358.744,272.05 360.411,272.883 361.5,274.5C 355.167,274.5 348.833,274.5 342.5,274.5C 334.167,274.5 325.833,274.5 317.5,274.5C 315.167,273.833 312.833,273.167 310.5,272.5C 311.436,271.026 312.77,270.026 314.5,269.5 Z"/></g>
<g><path style="opacity:1" fill="#457af8" d="M 140.5,293.5 C 141.947,303.758 142.613,314.091 142.5,324.5C 141.139,328.286 139.805,327.953 138.5,323.5C 131.866,322.503 125.2,322.17 118.5,322.5C 118.5,328.833 118.5,335.167 118.5,341.5C 118.167,341.5 117.833,341.5 117.5,341.5C 117.5,333.167 117.5,324.833 117.5,316.5C 116.939,310.276 117.605,304.276 119.5,298.5C 118.51,294.895 117.844,291.228 117.5,287.5C 119.5,287.5 121.5,287.5 123.5,287.5C 123.5,289.167 123.5,290.833 123.5,292.5C 128.762,292.805 133.928,292.471 139,291.5C 139.278,292.416 139.778,293.082 140.5,293.5 Z"/></g>
<g><path style="opacity:1" fill="#bc6c83" d="M 114.5,277.5 C 114.833,277.5 115.167,277.5 115.5,277.5C 115.973,288.828 116.307,300.162 116.5,311.5C 116.167,311.5 115.833,311.5 115.5,311.5C 115.027,300.172 114.693,288.838 114.5,277.5 Z"/></g>
<g><path style="opacity:1" fill="#f6a771" d="M 277.5,314.5 C 277.932,315.71 278.599,316.71 279.5,317.5C 280.301,321.235 281.301,324.901 282.5,328.5C 277.155,327.828 272.488,329.161 268.5,332.5C 268.5,330.167 268.5,327.833 268.5,325.5C 266.708,325.634 265.042,325.301 263.5,324.5C 263.167,323.5 262.5,322.833 261.5,322.5C 259.506,319.49 258.506,316.157 258.5,312.5C 260.911,310.9 263.411,309.234 266,307.5C 267.016,308.634 267.683,308.301 268,306.5C 271.375,308.91 274.541,311.577 277.5,314.5 Z"/></g>
<g><path style="opacity:1" fill="#4a7ef2" d="M 294.5,322.5 C 295.919,323.451 297.585,323.784 299.5,323.5C 299.5,325.833 299.5,328.167 299.5,330.5C 299.697,336.545 299.363,342.545 298.5,348.5C 298.167,348.5 297.833,348.5 297.5,348.5C 297.672,347.508 297.338,346.842 296.5,346.5C 295.985,341.133 293.651,336.8 289.5,333.5C 287.381,331.6 285.047,329.934 282.5,328.5C 281.301,324.901 280.301,321.235 279.5,317.5C 280.458,317.047 281.292,316.381 282,315.5C 282.918,311.72 283.751,308.054 284.5,304.5C 287.275,303.688 289.442,302.021 291,299.5C 290.852,300.825 291.018,301.992 291.5,303C 290.833,303.333 290.167,303.667 289.5,304C 290.766,304.309 291.933,304.809 293,305.5C 293.173,311.348 293.673,317.015 294.5,322.5 Z"/></g>
<g><path style="opacity:1" fill="#8eb0f5" d="M 299.5,306.5 C 299.5,312.167 299.5,317.833 299.5,323.5C 297.585,323.784 295.919,323.451 294.5,322.5C 294.5,317.167 294.5,311.833 294.5,306.5C 296.167,306.5 297.833,306.5 299.5,306.5 Z"/></g>
<g><path style="opacity:1" fill="#7099f4" d="M 151.5,322.5 C 188.167,322.5 224.833,322.5 261.5,322.5C 262.5,322.833 263.167,323.5 263.5,324.5C 246.547,323.528 229.547,323.195 212.5,323.5C 191.993,323.83 171.66,323.497 151.5,322.5 Z"/></g>
<g><path style="opacity:1" fill="#4274f9" d="M 151.5,322.5 C 171.66,323.497 191.993,323.83 212.5,323.5C 212.611,324.117 212.944,324.617 213.5,325C 193.26,325.826 173.094,325.659 153,324.5C 152.5,325 152,325.5 151.5,326C 160.833,326.333 170.167,326.667 179.5,327C 176.5,327.333 173.5,327.667 170.5,328C 179.798,329.593 189.131,330.926 198.5,332C 196.5,332.333 194.5,332.667 192.5,333C 197.833,333.333 203.167,333.667 208.5,334C 210.663,334.245 212.33,335.245 213.5,337C 218.176,337.463 222.843,337.296 227.5,336.5C 234.182,337.703 240.849,339.036 247.5,340.5C 234.517,341.499 221.517,341.832 208.5,341.5C 207.781,339.909 206.781,338.409 205.5,337C 200.511,336.501 195.511,336.334 190.5,336.5C 190.517,338.565 190.85,340.565 191.5,342.5C 177.829,342.667 164.163,342.5 150.5,342C 148.622,340.457 147.122,338.624 146,336.5C 145.5,329.842 145.334,323.175 145.5,316.5C 145.804,313.478 146.304,310.478 147,307.5C 147.974,309.878 148.641,309.544 149,306.5C 149.867,311.972 150.7,317.306 151.5,322.5 Z"/></g>
<g><path style="opacity:1" fill="#4379f9" d="M 212.5,323.5 C 229.547,323.195 246.547,323.528 263.5,324.5C 265.042,325.301 266.708,325.634 268.5,325.5C 268.5,327.833 268.5,330.167 268.5,332.5C 265.464,335.243 263.464,338.576 262.5,342.5C 262.167,342.5 261.833,342.5 261.5,342.5C 244.167,342.5 226.833,342.5 209.5,342.5C 208.833,342.5 208.5,342.167 208.5,341.5C 221.517,341.832 234.517,341.499 247.5,340.5C 240.849,339.036 234.182,337.703 227.5,336.5C 222.843,337.296 218.176,337.463 213.5,337C 212.33,335.245 210.663,334.245 208.5,334C 203.167,333.667 197.833,333.333 192.5,333C 194.5,332.667 196.5,332.333 198.5,332C 189.131,330.926 179.798,329.593 170.5,328C 173.5,327.667 176.5,327.333 179.5,327C 170.167,326.667 160.833,326.333 151.5,326C 152,325.5 152.5,325 153,324.5C 173.094,325.659 193.26,325.826 213.5,325C 212.944,324.617 212.611,324.117 212.5,323.5 Z"/></g>
<g><path style="opacity:1" fill="#da4c62" d="M 94.5,339.5 C 95.7942,340.29 96.9609,341.29 98,342.5C 101.764,340.975 103.597,342.308 103.5,346.5C 104.93,346.421 106.264,346.754 107.5,347.5C 109.937,350.597 111.937,353.93 113.5,357.5C 115.124,357.36 116.29,358.027 117,359.5C 117.499,353.509 117.666,347.509 117.5,341.5C 117.833,341.5 118.167,341.5 118.5,341.5C 118.176,348.354 118.509,355.021 119.5,361.5C 119.5,368.167 119.5,374.833 119.5,381.5C 112.137,381.831 104.803,381.497 97.5,380.5C 96.8075,379.482 96.1408,378.482 95.5,377.5C 95.2164,369.956 95.5498,362.456 96.5,355C 95.8053,349.823 95.1387,344.657 94.5,339.5 Z"/></g>
<g><path style="opacity:1" fill="#f8e644" d="M 282.5,328.5 C 285.047,329.934 287.381,331.6 289.5,333.5C 289.539,334.583 289.873,335.583 290.5,336.5C 281.625,341.204 272.291,344.537 262.5,346.5C 262.5,345.167 262.5,343.833 262.5,342.5C 263.464,338.576 265.464,335.243 268.5,332.5C 272.488,329.161 277.155,327.828 282.5,328.5 Z"/></g>
<g><path style="opacity:1" fill="#c04966" d="M 93.5,321.5 C 94.4896,327.31 94.8229,333.31 94.5,339.5C 95.1387,344.657 95.8053,349.823 96.5,355C 95.5498,362.456 95.2164,369.956 95.5,377.5C 94.5358,362.67 93.8692,347.67 93.5,332.5C 93.5,328.833 93.5,325.167 93.5,321.5 Z"/></g>
<g><path style="opacity:1" fill="#406ef8" d="M 142.5,324.5 C 142.335,328.182 142.501,331.848 143,335.5C 143.891,339.887 146.391,342.887 150.5,344.5C 164.323,345.496 178.323,345.829 192.5,345.5C 195.322,350.49 197.655,355.823 199.5,361.5C 198.542,361.047 197.708,360.381 197,359.5C 196.43,362.844 195.264,363.177 193.5,360.5C 190.242,361.417 186.909,361.751 183.5,361.5C 183.5,359.833 183.5,358.167 183.5,356.5C 173.5,356.5 163.5,356.5 153.5,356.5C 153.5,354.833 153.5,353.167 153.5,351.5C 142.083,351.025 130.749,351.025 119.5,351.5C 119.5,354.833 119.5,358.167 119.5,361.5C 118.509,355.021 118.176,348.354 118.5,341.5C 118.5,335.167 118.5,328.833 118.5,322.5C 125.2,322.17 131.866,322.503 138.5,323.5C 139.805,327.953 141.139,328.286 142.5,324.5 Z"/></g>
<g><path style="opacity:1" fill="#5fcac7" d="M 198.5,338.5 C 200.22,342.535 201.22,346.869 201.5,351.5C 201.253,352.713 200.586,353.38 199.5,353.5C 197.198,348.572 195.198,343.572 193.5,338.5C 195.167,338.5 196.833,338.5 198.5,338.5 Z"/></g>
<g><path style="opacity:1" fill="#b6c9f8" d="M 209.5,342.5 C 226.833,342.5 244.167,342.5 261.5,342.5C 261.784,344.415 261.451,346.081 260.5,347.5C 244.2,345.515 227.534,344.848 210.5,345.5C 210.167,345.5 209.833,345.5 209.5,345.5C 209.5,344.5 209.5,343.5 209.5,342.5 Z"/></g>
<g><path style="opacity:1" fill="#f6d746" d="M 289.5,333.5 C 293.651,336.8 295.985,341.133 296.5,346.5C 295.878,348.335 294.544,349.502 292.5,350C 287.208,351.952 281.874,353.452 276.5,354.5C 276.719,353.325 276.386,352.325 275.5,351.5C 274.074,356.44 270.74,359.107 265.5,359.5C 263.459,358.009 261.959,358.342 261,360.5C 260.501,356.514 260.334,352.514 260.5,348.5C 260.5,348.167 260.5,347.833 260.5,347.5C 261.451,346.081 261.784,344.415 261.5,342.5C 261.833,342.5 262.167,342.5 262.5,342.5C 262.5,343.833 262.5,345.167 262.5,346.5C 272.291,344.537 281.625,341.204 290.5,336.5C 289.873,335.583 289.539,334.583 289.5,333.5 Z"/></g>
<g><path style="opacity:1" fill="#86a4f2" d="M 191.5,342.5 C 192.404,343.209 192.737,344.209 192.5,345.5C 178.323,345.829 164.323,345.496 150.5,344.5C 164.541,345.149 178.208,344.482 191.5,342.5 Z"/></g>
<g><path style="opacity:1" fill="#1f2661" d="M 208.5,341.5 C 208.5,342.167 208.833,342.5 209.5,342.5C 209.5,343.5 209.5,344.5 209.5,345.5C 209.5,346.167 209.5,346.833 209.5,347.5C 207.975,344.921 206.641,342.254 205.5,339.5C 204.791,338.596 203.791,338.263 202.5,338.5C 201.167,338.5 199.833,338.5 198.5,338.5C 196.833,338.5 195.167,338.5 193.5,338.5C 195.198,343.572 197.198,348.572 199.5,353.5C 200.833,356.5 202.167,359.5 203.5,362.5C 204.11,363.391 204.443,364.391 204.5,365.5C 205.347,366.966 206.68,367.8 208.5,368C 206.866,368.494 205.199,368.66 203.5,368.5C 201.794,366.388 200.461,364.055 199.5,361.5C 197.655,355.823 195.322,350.49 192.5,345.5C 192.737,344.209 192.404,343.209 191.5,342.5C 190.85,340.565 190.517,338.565 190.5,336.5C 195.511,336.334 200.511,336.501 205.5,337C 206.781,338.409 207.781,339.909 208.5,341.5 Z"/></g>
<g><path style="opacity:1" fill="#70b7d5" d="M 198.5,338.5 C 199.833,338.5 201.167,338.5 202.5,338.5C 203.243,345.44 203.91,352.44 204.5,359.5C 204.48,360.726 204.147,361.726 203.5,362.5C 202.167,359.5 200.833,356.5 199.5,353.5C 200.586,353.38 201.253,352.713 201.5,351.5C 201.22,346.869 200.22,342.535 198.5,338.5 Z"/></g>
<g><path style="opacity:1" fill="#252a70" d="M 309.5,274.5 C 309.334,283.506 309.5,292.506 310,301.5C 310.996,303.66 312.496,305.327 314.5,306.5C 334.993,307.497 355.66,307.831 376.5,307.5C 376.5,309.167 376.5,310.833 376.5,312.5C 379.833,312.5 383.167,312.5 386.5,312.5C 386.5,314.167 386.5,315.833 386.5,317.5C 388.167,317.5 389.833,317.5 391.5,317.5C 391.5,318.833 391.5,320.167 391.5,321.5C 386.637,321.181 381.97,321.514 377.5,322.5C 370.941,327.081 370.941,331.747 377.5,336.5C 383.747,337.299 390.08,338.299 396.5,339.5C 396.5,340.833 396.5,342.167 396.5,343.5C 390.347,342.652 384.347,342.986 378.5,344.5C 371.783,347.612 370.783,352.112 375.5,358C 382.156,360.373 388.489,359.873 394.5,356.5C 395.531,355.645 396.697,354.978 398,354.5C 400.366,356.628 402.533,358.962 404.5,361.5C 405.85,360.05 407.516,359.383 409.5,359.5C 413.846,359.666 418.179,359.499 422.5,359C 424.323,358.003 425.99,356.836 427.5,355.5C 428.75,355.577 429.583,356.244 430,357.5C 430.634,351.866 431.134,351.532 431.5,356.5C 432.833,356.5 434.167,356.5 435.5,356.5C 437.184,342.943 438.017,329.276 438,315.5C 438.179,319.025 438.679,322.359 439.5,325.5C 440.191,348.491 440.858,371.491 441.5,394.5C 441.047,401.837 440.547,409.17 440,416.5C 438.74,419.428 436.573,421.261 433.5,422C 424.506,422.5 415.506,422.666 406.5,422.5C 407.209,421.596 408.209,421.263 409.5,421.5C 417.326,421.123 424.826,421.123 432,421.5C 433.067,420.809 434.234,420.309 435.5,420C 429.976,419.713 424.476,419.213 419,418.5C 417.072,418.933 415.239,419.6 413.5,420.5C 411.432,420.033 409.432,419.366 407.5,418.5C 406.614,417.675 406.281,416.675 406.5,415.5C 403.398,413.404 400.064,411.738 396.5,410.5C 396.5,409.167 396.5,407.833 396.5,406.5C 394.833,406.5 393.167,406.5 391.5,406.5C 391.286,404.856 391.62,403.356 392.5,402C 387.316,401.826 382.316,401.326 377.5,400.5C 382.179,400.666 386.845,400.499 391.5,400C 396.778,395.491 396.778,391.158 391.5,387C 386.167,386.333 380.833,386.333 375.5,387C 374.364,388.145 373.364,389.312 372.5,390.5C 372.213,387.516 370.546,386.183 367.5,386.5C 367.714,384.856 367.38,383.356 366.5,382C 359.66,380.01 352.66,379.01 345.5,379C 344.944,378.617 344.611,378.117 344.5,377.5C 349.782,378.567 355.115,378.733 360.5,378C 366.079,373.155 365.746,368.822 359.5,365C 353.95,364.003 348.617,364.503 343.5,366.5C 343.349,362.686 341.349,361.019 337.5,361.5C 337.5,359.833 337.5,358.167 337.5,356.5C 332.78,356.775 332.446,355.941 336.5,354C 334.894,350.861 333.561,351.028 332.5,354.5C 333.125,351.03 332.125,348.196 329.5,346C 325.637,344.646 321.637,344.146 317.5,344.5C 320.641,343.679 323.975,343.179 327.5,343C 324.183,342.502 320.85,342.335 317.5,342.5C 317.5,341.5 317.5,340.5 317.5,339.5C 318.873,339.657 320.207,339.49 321.5,339C 318.964,338.814 316.631,338.314 314.5,337.5C 319.179,337.666 323.845,337.499 328.5,337C 329.931,336.535 331.097,335.701 332,334.5C 333.804,325.636 330.137,321.97 321,323.5C 310.056,323.464 307.556,328.13 313.5,337.5C 312.5,337.5 311.5,337.5 310.5,337.5C 309.934,333.194 309.268,332.861 308.5,336.5C 306.508,336.672 304.842,336.005 303.5,334.5C 302.686,332.234 302.186,329.9 302,327.5C 301.667,330.5 301.333,333.5 301,336.5C 300.809,334.292 300.309,332.292 299.5,330.5C 299.5,328.167 299.5,325.833 299.5,323.5C 299.5,317.833 299.5,312.167 299.5,306.5C 300.167,300.986 300.833,295.319 301.5,289.5C 302.842,287.995 304.508,287.328 306.5,287.5C 306.627,282.849 307.627,278.515 309.5,274.5 Z"/></g>
<g><path style="opacity:1" fill="#4178f2" d="M 345.5,344.5 C 350.959,344.103 356.292,344.603 361.5,346C 365.826,351.044 365.16,355.378 359.5,359C 354.382,359.888 349.382,359.555 344.5,358C 340.285,353.134 340.618,348.634 345.5,344.5 Z"/></g>
<g><path style="opacity:1" fill="#4484f5" d="M 427.5,355.5 C 425.99,356.836 424.323,358.003 422.5,359C 418.179,359.499 413.846,359.666 409.5,359.5C 408.542,358.038 407.376,356.705 406,355.5C 405.833,354.167 405.667,352.833 405.5,351.5C 404.984,348.185 406.317,346.018 409.5,345C 414.167,344.333 418.833,344.333 423.5,345C 426.873,347.615 428.206,351.115 427.5,355.5 Z"/></g>
<g><path style="opacity:1" fill="#437df4" d="M 378.5,344.5 C 383.297,344.121 387.964,344.621 392.5,346C 395.688,348.953 396.355,352.453 394.5,356.5C 388.489,359.873 382.156,360.373 375.5,358C 370.783,352.112 371.783,347.612 378.5,344.5 Z"/></g>
<g><path style="opacity:1" fill="#4587f7" d="M 377.5,322.5 C 382.179,322.334 386.845,322.501 391.5,323C 396.778,327.158 396.778,331.491 391.5,336C 386.845,336.499 382.179,336.666 377.5,336.5C 370.941,331.747 370.941,327.081 377.5,322.5 Z"/></g>
<g><path style="opacity:1" fill="#4482f7" d="M 345.5,322.5 C 350.511,322.334 355.511,322.501 360.5,323C 365.749,327.287 365.749,331.62 360.5,336C 355.113,336.784 349.78,336.618 344.5,335.5C 340.342,330.79 340.676,326.456 345.5,322.5 Z"/></g>
<g><path style="opacity:1" fill="#ae39c7" d="M 314.5,337.5 C 314.167,337.5 313.833,337.5 313.5,337.5C 307.556,328.13 310.056,323.464 321,323.5C 330.137,321.97 333.804,325.636 332,334.5C 331.097,335.701 329.931,336.535 328.5,337C 323.845,337.499 319.179,337.666 314.5,337.5 Z"/></g>
<g><path style="opacity:1" fill="#468df7" d="M 408.5,322.5 C 414.29,322.096 419.956,322.596 425.5,324C 427.993,327.308 428.159,330.808 426,334.5C 425.25,335.126 424.416,335.626 423.5,336C 418.5,336.667 413.5,336.667 408.5,336C 403.209,331.423 403.209,326.923 408.5,322.5 Z"/></g>
<g><path style="opacity:1" fill="#426ff7" d="M 210.5,345.5 C 227.534,344.848 244.2,345.515 260.5,347.5C 260.5,347.833 260.5,348.167 260.5,348.5C 258.925,354.221 256.925,359.888 254.5,365.5C 250.869,366.412 247.203,366.579 243.5,366C 238.34,364.179 233.173,362.346 228,360.5C 225.288,360.391 223.122,361.391 221.5,363.5C 219.712,363.785 218.045,363.452 216.5,362.5C 214.095,356.949 212.095,351.283 210.5,345.5 Z"/></g>
<g><path style="opacity:1" fill="#7aaadd" d="M 202.5,338.5 C 203.791,338.263 204.791,338.596 205.5,339.5C 206.101,348.189 206.767,356.856 207.5,365.5C 206.5,365.5 205.5,365.5 204.5,365.5C 204.443,364.391 204.11,363.391 203.5,362.5C 204.147,361.726 204.48,360.726 204.5,359.5C 203.91,352.44 203.243,345.44 202.5,338.5 Z"/></g>
<g><path style="opacity:1" fill="#8597e5" d="M 205.5,339.5 C 206.641,342.254 207.975,344.921 209.5,347.5C 210.167,350.167 210.833,352.833 211.5,355.5C 210.521,358.625 210.187,361.958 210.5,365.5C 209.5,365.5 208.5,365.5 207.5,365.5C 206.767,356.856 206.101,348.189 205.5,339.5 Z"/></g>
<g><path style="opacity:1" fill="#4171f1" d="M 317.5,344.5 C 321.637,344.146 325.637,344.646 329.5,346C 332.125,348.196 333.125,351.03 332.5,354.5C 330.704,355.793 329.037,357.293 327.5,359C 322.833,359.667 318.167,359.667 313.5,359C 309.146,355.21 308.479,350.877 311.5,346C 313.345,344.872 315.345,344.372 317.5,344.5 Z"/></g>
<g><path style="opacity:1" fill="#f3c64a" d="M 296.5,346.5 C 297.338,346.842 297.672,347.508 297.5,348.5C 297.5,351.833 297.5,355.167 297.5,358.5C 288.894,361.423 280.394,364.423 272,367.5C 272.218,365.413 272.051,363.413 271.5,361.5C 270.343,365.486 267.676,367.319 263.5,367C 262.382,368.074 261.382,369.24 260.5,370.5C 259.583,369.873 258.583,369.539 257.5,369.5C 256.5,368.167 255.5,366.833 254.5,365.5C 256.925,359.888 258.925,354.221 260.5,348.5C 260.334,352.514 260.501,356.514 261,360.5C 261.959,358.342 263.459,358.009 265.5,359.5C 270.74,359.107 274.074,356.44 275.5,351.5C 276.386,352.325 276.719,353.325 276.5,354.5C 281.874,353.452 287.208,351.952 292.5,350C 294.544,349.502 295.878,348.335 296.5,346.5 Z"/></g>
<g><path style="opacity:1" fill="#8c7ee8" d="M 211.5,355.5 C 213.277,358.505 214.277,361.838 214.5,365.5C 213.167,365.5 211.833,365.5 210.5,365.5C 210.187,361.958 210.521,358.625 211.5,355.5 Z"/></g>
<g><path style="opacity:0.161" fill="#e1c5e4" d="M 86.5,301.5 C 87.1667,314.5 87.8333,327.5 88.5,340.5C 88.5,350.833 88.5,361.167 88.5,371.5C 88.7471,374.939 88.4137,378.272 87.5,381.5C 75.1928,365.541 67.1928,347.541 63.5,327.5C 66.9208,337.045 70.4208,346.712 74,356.5C 77.1744,364.197 81.3411,371.197 86.5,377.5C 87.0402,352.178 87.0402,326.844 86.5,301.5 Z"/></g>
<g><path style="opacity:1" fill="#f1ba4b" d="M 297.5,348.5 C 297.833,348.5 298.167,348.5 298.5,348.5C 298.5,349.833 298.5,351.167 298.5,352.5C 298.666,357.179 298.499,361.845 298,366.5C 297.5,367 297,367.5 296.5,368C 285.295,371.94 273.962,375.44 262.5,378.5C 261.307,375.289 259.641,372.289 257.5,369.5C 258.583,369.539 259.583,369.873 260.5,370.5C 261.382,369.24 262.382,368.074 263.5,367C 267.676,367.319 270.343,365.486 271.5,361.5C 272.051,363.413 272.218,365.413 272,367.5C 280.394,364.423 288.894,361.423 297.5,358.5C 297.5,355.167 297.5,351.833 297.5,348.5 Z"/></g>
<g><path style="opacity:1" fill="#4174f6" d="M 344.5,377.5 C 340.98,374.064 340.646,370.397 343.5,366.5C 348.617,364.503 353.95,364.003 359.5,365C 365.746,368.822 366.079,373.155 360.5,378C 355.115,378.733 349.782,378.567 344.5,377.5 Z"/></g>
<g><path style="opacity:1" fill="#4294ca" d="M 408.5,364.5 C 414.29,364.096 419.956,364.596 425.5,366C 428.285,370.193 427.952,374.193 424.5,378C 419.167,378.667 413.833,378.667 408.5,378C 404.541,373.501 404.541,369.001 408.5,364.5 Z"/></g>
<g><path style="opacity:1" fill="#3f64f7" d="M 199.5,361.5 C 200.461,364.055 201.794,366.388 203.5,368.5C 205.265,369.461 207.265,369.795 209.5,369.5C 203.824,375.177 198.491,381.177 193.5,387.5C 169.167,387.5 144.833,387.5 120.5,387.5C 120.795,385.265 120.461,383.265 119.5,381.5C 119.5,374.833 119.5,368.167 119.5,361.5C 119.5,358.167 119.5,354.833 119.5,351.5C 130.749,351.025 142.083,351.025 153.5,351.5C 153.5,353.167 153.5,354.833 153.5,356.5C 163.5,356.5 173.5,356.5 183.5,356.5C 183.5,358.167 183.5,359.833 183.5,361.5C 186.909,361.751 190.242,361.417 193.5,360.5C 195.264,363.177 196.43,362.844 197,359.5C 197.708,360.381 198.542,361.047 199.5,361.5 Z"/></g>
<g><path style="opacity:1" fill="#3b327d" d="M 209.5,345.5 C 209.833,345.5 210.167,345.5 210.5,345.5C 212.095,351.283 214.095,356.949 216.5,362.5C 218.045,363.452 219.712,363.785 221.5,363.5C 221.196,364.15 220.863,364.817 220.5,365.5C 223.107,366.318 225.774,366.818 228.5,367C 229.056,367.383 229.389,367.883 229.5,368.5C 222.957,368.864 216.29,369.197 209.5,369.5C 207.265,369.795 205.265,369.461 203.5,368.5C 205.199,368.66 206.866,368.494 208.5,368C 206.68,367.8 205.347,366.966 204.5,365.5C 205.5,365.5 206.5,365.5 207.5,365.5C 208.5,365.5 209.5,365.5 210.5,365.5C 211.833,365.5 213.167,365.5 214.5,365.5C 214.277,361.838 213.277,358.505 211.5,355.5C 210.833,352.833 210.167,350.167 209.5,347.5C 209.5,346.833 209.5,346.167 209.5,345.5 Z"/></g>
<g><path style="opacity:1" fill="#eaad4e" d="M 298.5,352.5 C 299.338,352.842 299.672,353.508 299.5,354.5C 299.5,361.167 299.5,367.833 299.5,374.5C 298.662,374.842 298.328,375.508 298.5,376.5C 290.956,378.942 283.456,381.608 276,384.5C 273.976,384.2 273.476,383.367 274.5,382C 273.391,381.362 272.225,380.862 271,380.5C 268.498,382.434 265.664,383.434 262.5,383.5C 262.5,381.833 262.5,380.167 262.5,378.5C 273.962,375.44 285.295,371.94 296.5,368C 297,367.5 297.5,367 298,366.5C 298.499,361.845 298.666,357.179 298.5,352.5 Z"/></g>
<g><path style="opacity:1" fill="#375bc4" d="M 376.5,364.5 C 381.511,364.334 386.511,364.501 391.5,365C 395.701,368.025 396.535,371.859 394,376.5C 393.25,377.126 392.416,377.626 391.5,378C 386.5,378.667 381.5,378.667 376.5,378C 371.221,373.503 371.221,369.003 376.5,364.5 Z"/></g>
<g><path style="opacity:1" fill="#f2ae76" d="M 254.5,365.5 C 255.5,366.833 256.5,368.167 257.5,369.5C 259.641,372.289 261.307,375.289 262.5,378.5C 262.5,380.167 262.5,381.833 262.5,383.5C 261.549,382.081 261.216,380.415 261.5,378.5C 249.706,378.567 239.039,375.234 229.5,368.5C 229.389,367.883 229.056,367.383 228.5,367C 225.774,366.818 223.107,366.318 220.5,365.5C 220.863,364.817 221.196,364.15 221.5,363.5C 223.122,361.391 225.288,360.391 228,360.5C 233.173,362.346 238.34,364.179 243.5,366C 247.203,366.579 250.869,366.412 254.5,365.5 Z"/></g>
<g><path style="opacity:1" fill="#a6246e" d="M 229.5,368.5 C 239.039,375.234 249.706,378.567 261.5,378.5C 261.216,380.415 261.549,382.081 262.5,383.5C 262.5,383.833 262.5,384.167 262.5,384.5C 260.634,383.986 258.8,383.32 257,382.5C 252.319,384.185 247.485,384.852 242.5,384.5C 242.719,385.675 242.386,386.675 241.5,387.5C 238.93,388.634 236.264,389.468 233.5,390C 232.711,393.097 231.544,393.264 230,390.5C 228.371,390.164 226.871,390.83 225.5,392.5C 221.854,389.521 218.521,386.188 215.5,382.5C 211.172,389.479 206.506,396.146 201.5,402.5C 196.503,407.321 191.169,411.654 185.5,415.5C 184.341,413.75 182.674,412.75 180.5,412.5C 180.731,408.707 182.065,405.374 184.5,402.5C 184.5,402.167 184.5,401.833 184.5,401.5C 187.916,397.677 190.582,393.343 192.5,388.5C 193.167,388.5 193.5,388.167 193.5,387.5C 198.491,381.177 203.824,375.177 209.5,369.5C 216.29,369.197 222.957,368.864 229.5,368.5 Z"/></g>
<g><path style="opacity:1" fill="#2a2b70" d="M 93.5,332.5 C 93.8692,347.67 94.5358,362.67 95.5,377.5C 96.1408,378.482 96.8075,379.482 97.5,380.5C 104.803,381.497 112.137,381.831 119.5,381.5C 119.5,383.167 119.5,384.833 119.5,386.5C 110.161,386.666 100.827,386.5 91.5,386C 91,385.5 90.5,385 90,384.5C 89.8247,379.981 89.3247,375.647 88.5,371.5C 88.5,361.167 88.5,350.833 88.5,340.5C 88.5,325.833 88.5,311.167 88.5,296.5C 88.3505,295.448 88.5172,294.448 89,293.5C 89.4966,300.503 90.1632,300.837 91,294.5C 91.6271,300.185 91.4604,305.851 90.5,311.5C 91.8954,318.555 92.8954,325.555 93.5,332.5 Z"/></g>
<g><path style="opacity:1" fill="#eca44f" d="M 298.5,376.5 C 297.957,379.218 297.291,381.885 296.5,384.5C 295.15,385.483 294.15,386.816 293.5,388.5C 292.808,387.975 292.308,387.308 292,386.5C 289.711,388.906 287.044,389.572 284,388.5C 283.085,389.328 282.419,390.328 282,391.5C 279.959,390.577 277.792,390.244 275.5,390.5C 271.073,388.788 266.74,386.788 262.5,384.5C 262.5,384.167 262.5,383.833 262.5,383.5C 265.664,383.434 268.498,382.434 271,380.5C 272.225,380.862 273.391,381.362 274.5,382C 273.476,383.367 273.976,384.2 276,384.5C 283.456,381.608 290.956,378.942 298.5,376.5 Z"/></g>
<g><path style="opacity:1" fill="#5163d1" d="M 299.5,374.5 C 299.5,378.833 299.5,383.167 299.5,387.5C 298.209,387.737 297.209,387.404 296.5,386.5C 296.5,385.833 296.5,385.167 296.5,384.5C 297.291,381.885 297.957,379.218 298.5,376.5C 298.328,375.508 298.662,374.842 299.5,374.5 Z"/></g>
<g><path style="opacity:1" fill="#222568" d="M 313.5,337.5 C 313.833,337.5 314.167,337.5 314.5,337.5C 316.631,338.314 318.964,338.814 321.5,339C 320.207,339.49 318.873,339.657 317.5,339.5C 317.5,340.5 317.5,341.5 317.5,342.5C 320.85,342.335 324.183,342.502 327.5,343C 323.975,343.179 320.641,343.679 317.5,344.5C 315.345,344.372 313.345,344.872 311.5,346C 308.479,350.877 309.146,355.21 313.5,359C 318.167,359.667 322.833,359.667 327.5,359C 329.037,357.293 330.704,355.793 332.5,354.5C 333.561,351.028 334.894,350.861 336.5,354C 332.446,355.941 332.78,356.775 337.5,356.5C 337.5,358.167 337.5,359.833 337.5,361.5C 341.349,361.019 343.349,362.686 343.5,366.5C 340.646,370.397 340.98,374.064 344.5,377.5C 344.611,378.117 344.944,378.617 345.5,379C 352.66,379.01 359.66,380.01 366.5,382C 367.38,383.356 367.714,384.856 367.5,386.5C 370.546,386.183 372.213,387.516 372.5,390.5C 372.089,395.012 373.756,398.346 377.5,400.5C 382.316,401.326 387.316,401.826 392.5,402C 391.62,403.356 391.286,404.856 391.5,406.5C 393.167,406.5 394.833,406.5 396.5,406.5C 396.5,407.833 396.5,409.167 396.5,410.5C 400.064,411.738 403.398,413.404 406.5,415.5C 406.281,416.675 406.614,417.675 407.5,418.5C 409.432,419.366 411.432,420.033 413.5,420.5C 415.239,419.6 417.072,418.933 419,418.5C 424.476,419.213 429.976,419.713 435.5,420C 434.234,420.309 433.067,420.809 432,421.5C 424.826,421.123 417.326,421.123 409.5,421.5C 395.328,420.833 380.994,420.167 366.5,419.5C 362.657,419.065 360.324,417.065 359.5,413.5C 356.5,413.167 354.833,411.5 354.5,408.5C 351.975,407.36 349.308,406.693 346.5,406.5C 346.64,404.876 345.973,403.71 344.5,403C 346.935,402.925 347.602,402.092 346.5,400.5C 351.628,400.888 356.628,400.388 361.5,399C 365.032,395.61 365.366,391.943 362.5,388C 356.612,386.424 350.612,386.091 344.5,387C 340.535,391.239 340.535,395.405 344.5,399.5C 343.542,399.953 342.708,400.619 342,401.5C 339.556,398.461 336.556,396.128 333,394.5C 331.989,395.056 331.156,395.722 330.5,396.5C 330.666,387.827 330.5,379.16 330,370.5C 325.755,366.417 320.922,365.583 315.5,368C 314.299,368.903 313.465,370.069 313,371.5C 312.5,379.159 312.334,386.826 312.5,394.5C 311.833,388.654 311.167,382.654 310.5,376.5C 308.679,375.272 307.679,373.606 307.5,371.5C 305.876,371.64 304.71,370.973 304,369.5C 303.581,370.672 302.915,371.672 302,372.5C 301.667,366.833 301.333,361.167 301,355.5C 300.617,354.944 300.117,354.611 299.5,354.5C 299.672,353.508 299.338,352.842 298.5,352.5C 298.5,351.167 298.5,349.833 298.5,348.5C 299.363,342.545 299.697,336.545 299.5,330.5C 300.309,332.292 300.809,334.292 301,336.5C 301.333,333.5 301.667,330.5 302,327.5C 302.186,329.9 302.686,332.234 303.5,334.5C 304.842,336.005 306.508,336.672 308.5,336.5C 309.268,332.861 309.934,333.194 310.5,337.5C 311.5,337.5 312.5,337.5 313.5,337.5 Z"/></g>
<g><path style="opacity:1" fill="#3f6af7" d="M 330.5,396.5 C 327.411,401.121 323.077,402.621 317.5,401C 315.235,399.242 313.568,397.075 312.5,394.5C 312.334,386.826 312.5,379.159 313,371.5C 313.465,370.069 314.299,368.903 315.5,368C 320.922,365.583 325.755,366.417 330,370.5C 330.5,379.16 330.666,387.827 330.5,396.5 Z"/></g>
<g><path style="opacity:1" fill="#49276e" d="M 225.5,392.5 C 228.547,395.545 231.213,398.878 233.5,402.5C 228.125,402.172 222.792,402.505 217.5,403.5C 216.17,407.472 213.837,410.472 210.5,412.5C 208.784,412.371 207.117,412.038 205.5,411.5C 205.508,408.455 205.841,405.455 206.5,402.5C 204.833,402.5 203.167,402.5 201.5,402.5C 206.506,396.146 211.172,389.479 215.5,382.5C 218.521,386.188 221.854,389.521 225.5,392.5 Z"/></g>
<g><path style="opacity:1" fill="#2c3482" d="M 88.5,371.5 C 89.3247,375.647 89.8247,379.981 90,384.5C 90.5,385 91,385.5 91.5,386C 100.827,386.5 110.161,386.666 119.5,386.5C 119.5,384.833 119.5,383.167 119.5,381.5C 120.461,383.265 120.795,385.265 120.5,387.5C 144.833,387.5 169.167,387.5 193.5,387.5C 193.5,388.167 193.167,388.5 192.5,388.5C 168.831,388.333 145.164,388.5 121.5,389C 125.5,390 129.5,391 133.5,392C 132.062,394.595 130.729,397.262 129.5,400C 126.635,400.183 123.969,400.683 121.5,401.5C 116.381,400.897 111.715,401.564 107.5,403.5C 92.2552,403.824 77.0886,403.491 62,402.5C 61.1944,396.916 61.3611,391.416 62.5,386C 71.1858,385.832 79.8525,385.332 88.5,384.5C 87.8728,383.583 87.5394,382.583 87.5,381.5C 88.4137,378.272 88.7471,374.939 88.5,371.5 Z"/></g>
<g><path style="opacity:1" fill="#4175f6" d="M 408.5,386.5 C 414.29,386.096 419.956,386.596 425.5,388C 427.993,391.308 428.159,394.808 426,398.5C 425.25,399.126 424.416,399.626 423.5,400C 418.5,400.667 413.5,400.667 408.5,400C 404.53,395.43 404.53,390.93 408.5,386.5 Z"/></g>
<g><path style="opacity:1" fill="#212161" d="M 299.5,354.5 C 300.117,354.611 300.617,354.944 301,355.5C 301.333,361.167 301.667,366.833 302,372.5C 302.915,371.672 303.581,370.672 304,369.5C 304.71,370.973 305.876,371.64 307.5,371.5C 307.679,373.606 308.679,375.272 310.5,376.5C 311.167,382.654 311.833,388.654 312.5,394.5C 313.568,397.075 315.235,399.242 317.5,401C 323.077,402.621 327.411,401.121 330.5,396.5C 331.156,395.722 331.989,395.056 333,394.5C 336.556,396.128 339.556,398.461 342,401.5C 342.708,400.619 343.542,399.953 344.5,399.5C 345.167,399.833 345.833,400.167 346.5,400.5C 347.602,402.092 346.935,402.925 344.5,403C 345.973,403.71 346.64,404.876 346.5,406.5C 349.308,406.693 351.975,407.36 354.5,408.5C 354.833,411.5 356.5,413.167 359.5,413.5C 360.324,417.065 362.657,419.065 366.5,419.5C 380.994,420.167 395.328,420.833 409.5,421.5C 408.209,421.263 407.209,421.596 406.5,422.5C 372.829,423.81 339.162,423.81 305.5,422.5C 305.649,421.448 305.483,420.448 305,419.5C 300.062,414.909 298.228,409.242 299.5,402.5C 295.167,402.5 290.833,402.5 286.5,402.5C 286.5,402.167 286.5,401.833 286.5,401.5C 288.017,401.489 289.184,400.823 290,399.5C 292.74,395.353 294.907,391.02 296.5,386.5C 297.209,387.404 298.209,387.737 299.5,387.5C 299.5,383.167 299.5,378.833 299.5,374.5C 299.5,367.833 299.5,361.167 299.5,354.5 Z"/></g>
<g><path style="opacity:1" fill="#272d76" d="M 192.5,388.5 C 190.582,393.343 187.916,397.677 184.5,401.5C 163.5,401.5 142.5,401.5 121.5,401.5C 123.969,400.683 126.635,400.183 129.5,400C 130.729,397.262 132.062,394.595 133.5,392C 129.5,391 125.5,390 121.5,389C 145.164,388.5 168.831,388.333 192.5,388.5 Z"/></g>
<g><path style="opacity:1" fill="#e69454" d="M 296.5,384.5 C 296.5,385.167 296.5,385.833 296.5,386.5C 294.907,391.02 292.74,395.353 290,399.5C 289.184,400.823 288.017,401.489 286.5,401.5C 285.92,399.251 284.587,397.585 282.5,396.5C 280.353,394.263 278.02,392.263 275.5,390.5C 277.792,390.244 279.959,390.577 282,391.5C 282.419,390.328 283.085,389.328 284,388.5C 287.044,389.572 289.711,388.906 292,386.5C 292.308,387.308 292.808,387.975 293.5,388.5C 294.15,386.816 295.15,385.483 296.5,384.5 Z"/></g>
<g><path style="opacity:1" fill="#4172f5" d="M 377.5,400.5 C 373.756,398.346 372.089,395.012 372.5,390.5C 373.364,389.312 374.364,388.145 375.5,387C 380.833,386.333 386.167,386.333 391.5,387C 396.778,391.158 396.778,395.491 391.5,400C 386.845,400.499 382.179,400.666 377.5,400.5 Z"/></g>
<g><path style="opacity:1" fill="#8c246d" d="M 262.5,384.5 C 266.74,386.788 271.073,388.788 275.5,390.5C 278.02,392.263 280.353,394.263 282.5,396.5C 272.946,398.693 263.279,401.526 253.5,405C 251.292,406.861 248.792,408.361 246,409.5C 244.594,408.586 243.094,407.92 241.5,407.5C 238.816,405.807 236.149,404.14 233.5,402.5C 231.213,398.878 228.547,395.545 225.5,392.5C 226.871,390.83 228.371,390.164 230,390.5C 231.544,393.264 232.711,393.097 233.5,390C 236.264,389.468 238.93,388.634 241.5,387.5C 242.386,386.675 242.719,385.675 242.5,384.5C 247.485,384.852 252.319,384.185 257,382.5C 258.8,383.32 260.634,383.986 262.5,384.5 Z"/></g>
<g><path style="opacity:1" fill="#7f276e" d="M 282.5,396.5 C 284.587,397.585 285.92,399.251 286.5,401.5C 286.5,401.833 286.5,402.167 286.5,402.5C 283.187,410.339 277.187,414.505 268.5,415C 259.973,416.569 251.973,415.235 244.5,411C 243.29,409.961 242.29,408.794 241.5,407.5C 243.094,407.92 244.594,408.586 246,409.5C 248.792,408.361 251.292,406.861 253.5,405C 263.279,401.526 272.946,398.693 282.5,396.5 Z"/></g>
<g><path style="opacity:1" fill="#406bf3" d="M 346.5,400.5 C 345.833,400.167 345.167,399.833 344.5,399.5C 340.535,395.405 340.535,391.239 344.5,387C 350.612,386.091 356.612,386.424 362.5,388C 365.366,391.943 365.032,395.61 361.5,399C 356.628,400.388 351.628,400.888 346.5,400.5 Z"/></g>
<g><path style="opacity:1" fill="#514f8e" d="M 121.5,401.5 C 142.5,401.5 163.5,401.5 184.5,401.5C 184.5,401.833 184.5,402.167 184.5,402.5C 159.498,402.333 134.498,402.5 109.5,403C 110.252,403.671 110.586,404.504 110.5,405.5C 108.973,405.573 107.973,404.906 107.5,403.5C 111.715,401.564 116.381,400.897 121.5,401.5 Z"/></g>
<g><path style="opacity:1" fill="#f0d8f9" d="M 184.5,402.5 C 182.065,405.374 180.731,408.707 180.5,412.5C 179.596,413.209 179.263,414.209 179.5,415.5C 175.51,415.999 171.51,416.499 167.5,417C 166.09,417.368 165.09,418.201 164.5,419.5C 170.472,420.664 176.472,420.83 182.5,420C 185.19,419.665 185.857,418.499 184.5,416.5C 184.5,415.833 184.833,415.5 185.5,415.5C 191.169,411.654 196.503,407.321 201.5,402.5C 203.167,402.5 204.833,402.5 206.5,402.5C 205.841,405.455 205.508,408.455 205.5,411.5C 205.5,412.167 205.5,412.833 205.5,413.5C 201.483,413.342 198.483,415.009 196.5,418.5C 197.333,418.833 198.167,419.167 199,419.5C 202.151,418.907 205.318,418.407 208.5,418C 209.973,417.29 210.64,416.124 210.5,414.5C 210.5,413.833 210.5,413.167 210.5,412.5C 213.837,410.472 216.17,407.472 217.5,403.5C 222.792,402.505 228.125,402.172 233.5,402.5C 236.149,404.14 238.816,405.807 241.5,407.5C 242.29,408.794 243.29,409.961 244.5,411C 251.973,415.235 259.973,416.569 268.5,415C 277.187,414.505 283.187,410.339 286.5,402.5C 290.833,402.5 295.167,402.5 299.5,402.5C 298.228,409.242 300.062,414.909 305,419.5C 305.483,420.448 305.649,421.448 305.5,422.5C 263.284,438.04 219.951,441.874 175.5,434C 151.086,430.377 129.419,420.877 110.5,405.5C 110.586,404.504 110.252,403.671 109.5,403C 134.498,402.5 159.498,402.333 184.5,402.5 Z"/></g>
<g><path style="opacity:1" fill="#e38f76" d="M 205.5,411.5 C 207.117,412.038 208.784,412.371 210.5,412.5C 210.5,413.167 210.5,413.833 210.5,414.5C 208.585,414.784 206.919,414.451 205.5,413.5C 205.5,412.833 205.5,412.167 205.5,411.5 Z"/></g>
<g><path style="opacity:1" fill="#e99674" d="M 180.5,412.5 C 182.674,412.75 184.341,413.75 185.5,415.5C 184.833,415.5 184.5,415.833 184.5,416.5C 182.784,416.371 181.117,416.038 179.5,415.5C 179.263,414.209 179.596,413.209 180.5,412.5 Z"/></g>
<g><path style="opacity:1" fill="#312c6a" d="M 205.5,413.5 C 206.919,414.451 208.585,414.784 210.5,414.5C 210.64,416.124 209.973,417.29 208.5,418C 205.318,418.407 202.151,418.907 199,419.5C 198.167,419.167 197.333,418.833 196.5,418.5C 198.483,415.009 201.483,413.342 205.5,413.5 Z"/></g>
<g><path style="opacity:1" fill="#302f6f" d="M 179.5,415.5 C 181.117,416.038 182.784,416.371 184.5,416.5C 185.857,418.499 185.19,419.665 182.5,420C 176.472,420.83 170.472,420.664 164.5,419.5C 165.09,418.201 166.09,417.368 167.5,417C 171.51,416.499 175.51,415.999 179.5,415.5 Z"/></g>
</svg>
